<svg width="128" height="128" viewBox="0 0 128 128" fill="none" xmlns="http://www.w3.org/2000/svg">
<mask id="mask0_7_721" style="mask-type:alpha" maskUnits="userSpaceOnUse" x="7" y="10" width="112" height="108">
<path d="M40.71 107.26C40.8022 106.967 41.006 106.722 41.2773 106.578C41.5486 106.434 41.8656 106.402 42.16 106.49C45.18 107.43 39.73 110.42 40.71 107.26Z" stroke="#231F20" stroke-miterlimit="10"/>
<path d="M34.15 113.79C34.1945 113.645 34.2671 113.511 34.3636 113.395C34.4601 113.278 34.5786 113.182 34.7123 113.111C34.8461 113.041 34.9925 112.997 35.1431 112.983C35.2937 112.969 35.4456 112.985 35.59 113.03C38.61 114 33.17 117 34.15 113.79Z" stroke="#231F20" stroke-miterlimit="10"/>
<path d="M21.34 116C21.3845 115.855 21.4571 115.721 21.5536 115.605C21.6501 115.488 21.7686 115.392 21.9023 115.321C22.0361 115.251 22.1825 115.207 22.3331 115.193C22.4837 115.179 22.6356 115.195 22.78 115.24C25.8 116.19 20.36 119.19 21.34 116Z" stroke="#231F20" stroke-miterlimit="10"/>
<path d="M12.28 48C16.74 46.31 21.21 44.84 25.68 43.37L39.11 39C42.37 38 45.62 36.85 48.89 35.84C60.43 32.29 72 28.7 83.39 24.82C88.47 23.1 93.53 21.28 98.49 19.38C101.68 18.16 104.84 16.86 107.97 15.52C111.095 14.1996 114.149 12.7176 117.12 11.08C118.85 9.96 118.81 10.27 117.51 11.59C115.199 13.616 112.579 15.2601 109.75 16.46C103.35 19.38 96.82 21.87 90.25 24.29C83.68 26.71 77 29 70.33 31.12C62.33 33.72 54.05 36.59 45.88 39.29C36.88 42.29 27.88 45.09 18.94 48.2L14.84 49.67L12.84 50.45L11.91 50.83C11.74 50.9 11.58 50.96 11.42 51.04L10.93 51.26C10.84 51.43 11.04 51.58 11.14 51.71C11.2627 51.8408 11.3929 51.9644 11.53 52.08L11.75 52.26L12.15 52.58C13.27 53.44 14.46 54.24 15.67 55.01C17.51 56.18 19.42 57.21 21.37 58.23L27.19 61.42L38.8 67.73L39.38 68.03L40.16 68.47C40.22 68.47 40.32 68.53 40.33 68.61L40.39 68.82L40.52 69.26C40.5596 69.4045 40.5896 69.5515 40.61 69.7L40.68 70.04L41.14 72.55L42.03 77.55C42.63 80.85 43.23 84.14 43.82 87.45L44.63 91.79C45.56 97.23 45.77 98.94 45.63 100.19C45.6286 100.474 45.6085 100.758 45.57 101.04C45.49 101.35 45.21 101.04 44.74 100.04C44.1242 98.5996 43.6161 97.1156 43.22 95.6C42.4 92.68 41.74 89.68 41.12 86.66C40.5 83.64 39.92 80.57 39.39 77.48L38.59 72.84L38.18 70.54L38.12 70.24L37.74 70.04L29.37 65.54L16.85 58.72C14.72 57.5191 12.6692 56.1831 10.71 54.72L10.33 54.43L9.82 54C9.38192 53.6478 8.97078 53.2634 8.59 52.85C8.26293 52.4997 8.01409 52.0838 7.86 51.63C7.79657 51.4262 7.76619 51.2135 7.77 51C7.77 50.8 7.77 50.52 7.95 50.4L8.95 49.54L9.45 49.11C9.69081 48.9688 9.94145 48.8452 10.2 48.74L11.4 48.25L12.24 47.91L12.28 48Z" fill="#221F1F"/>
<path d="M68.32 84.55C69.85 85.38 71.32 86.25 72.86 87.12C73.41 87.44 73.99 87.7 74.51 88.05L80.09 91.76C80.91 92.3 81.76 92.76 82.6 93.3C83.7161 93.8564 84.7717 94.5266 85.75 95.3C86.04 95.59 85.88 95.76 85.43 95.86C84.822 96.028 84.1733 95.9639 83.61 95.68C81.35 94.54 79.11 93.35 77 92C75.66 91.1937 74.2781 90.4593 72.86 89.8C71.34 88.98 69.86 88.14 68.31 87.35C67.37 86.87 66.43 86.35 65.47 85.94C64.0152 85.215 62.5231 84.5674 61 84C59.84 83.55 58.63 83.37 57.47 83C57.2094 82.9453 56.9523 82.8751 56.7 82.79C55.78 82.41 55.55 82.06 55.47 81.55C55.4443 81.4348 55.4275 81.3178 55.42 81.2C55.42 80.85 55.9 80.65 56.71 80.59C59.0733 80.6683 61.395 81.2335 63.53 82.25C65.17 82.91 66.76 83.71 68.32 84.51V84.55Z" fill="#221F1F"/>
<path d="M66 49.14L77.14 41.63L81.14 38.85L95.5 29.26C97.62 27.84 99.73 26.37 101.8 24.91C104.47 23.04 107.1 21.1 109.92 19.46C110.078 19.3626 110.245 19.2821 110.42 19.22C110.42 19.28 110.31 18.99 110.78 19.72C110.767 19.7255 110.754 19.7283 110.74 19.7283C110.726 19.7283 110.713 19.7255 110.7 19.72C110.69 19.6874 110.69 19.6526 110.7 19.62C110.7 19.69 110.56 19.54 110.62 19.51V19.6C110.533 19.7626 110.436 19.9196 110.33 20.07C109.471 21.2645 108.42 22.3086 107.22 23.16C101.81 27 96.34 30.74 90.73 34.42C87.37 36.6 84 39 80.61 41.36L69.43 49L62.56 53.7C59.1 56.09 55.56 58.46 52.22 60.88C49.58 62.76 47.06 64.71 44.48 66.62L42.8 67.87C40.66 69.42 39.91 69.8 39.15 69.72C38.9814 69.7223 38.8133 69.7021 38.65 69.66C38.22 69.5 38.91 68.66 40.41 67.39C44.87 63.76 49.8 60.26 54.78 56.79L65.94 49.11L66 49.14Z" fill="#221F1F"/>
<path d="M73.88 53.78L82.62 46.41L85.76 43.67L97 34.17C98.65 32.76 100.26 31.28 101.85 29.83C103.85 27.94 105.85 25.98 108.05 24.29C108.76 23.78 108.85 24.04 108.56 24.8C108.09 25.9834 107.374 27.0537 106.46 27.94C102.4 31.94 98.16 35.67 93.76 39.32C91.12 41.49 88.51 43.91 85.87 46.19L77.11 53.7L71.73 58.31C69 60.65 66.29 63 63.66 65.37C61.66 67.23 59.71 69.15 57.75 71.05L56.48 72.31C54.86 73.85 54.27 74.25 53.53 74.18C53.3618 74.1766 53.1943 74.1565 53.03 74.12C52.57 73.97 53.03 73.12 54.09 71.83C57.5526 68.1097 61.2253 64.5906 65.09 61.29C67.97 58.76 70.91 56.29 73.83 53.75L73.88 53.78Z" fill="#221F1F"/>
<path d="M96.44 70.4C95.36 74.07 94.32 77.76 93.44 81.47C92.97 83.33 92.52 85.18 92.15 87.05L91.85 88.44L91.62 89.84L91.38 91.23C91.315 91.5834 91.2749 91.941 91.26 92.3L91.15 93.57L91.09 93.68L90.55 94.68L90.48 94.81V94.87C90.37 94.65 90.72 95.37 90.24 94.38H90.06L89.62 94.51C89.31 94.82 88.73 94.34 88.23 94L86.89 93.1L83.38 90.77C79.15 88.12 75 85.47 70.68 83C66.4362 80.4998 61.9787 78.3815 57.36 76.67C56.85 76.5 56.36 76.33 55.82 76.18L55 76L54.53 75.88C54.41 75.88 54.24 75.78 54.17 75.88L54.08 76.27L53.76 77.65C53.2533 79.7633 52.7267 81.88 52.18 84C51.46 86.72 50.72 89.45 49.88 92.16C49.0784 94.9094 48.0447 97.5857 46.79 100.16C45.85 101.77 45.65 101.25 45.94 99.78C46.3574 97.3391 46.9184 94.9249 47.62 92.55C49.28 87.11 50.76 81.55 52.09 76.02L52.57 74.02L52.69 73.51C52.69 73.39 52.81 73.51 52.88 73.51L53.14 73.57L54.14 73.78L55.14 74.01L55.78 74.18L56.85 74.49C58.28 74.93 59.66 75.49 61.02 76.01C63.7451 77.1165 66.4089 78.3683 69 79.76C75.12 83.13 81.34 86.83 87.23 90.76L88.33 91.51L88.7 91.77C88.8187 91.8648 88.9459 91.9485 89.08 92.02V91.56V91.18L89.26 90.08C89.39 89.32 89.5 88.57 89.65 87.82C89.97 86.34 90.25 84.82 90.65 83.38L91.73 79L92.89 74.62C94.2 70 95.57 65.42 97 60.85C99.23 53.92 101.68 47.04 104.29 40.3C106.29 35.08 108.29 29.92 110.74 24.91C111.26 23.8 111.74 22.71 112.4 21.64L113.82 19.11C114.184 18.5432 114.578 17.9957 115 17.47C115.421 16.8609 115.938 16.324 116.53 15.88C116.715 15.7365 116.913 15.6094 117.12 15.5C117.62 15.32 116.82 17.02 115.25 19.91L113.63 23.23C113.07 24.34 112.63 25.52 112.1 26.66C111.03 28.93 110.1 31.31 109.1 33.66C107.21 38.43 105.35 43.29 103.65 48.22C102.35 51.87 101.14 55.56 99.95 59.22C98.76 62.88 97.59 66.63 96.5 70.36L96.44 70.4Z" fill="#221F1F"/>
<path d="M55.77 92.08C55.05 92.87 54.32 93.66 53.58 94.43C53.31 94.71 53.07 95.02 52.8 95.29C51.8 96.29 50.8 97.2 49.8 98.13L48.48 99.41C47.9308 99.9724 47.3125 100.463 46.64 100.87C46.21 101.12 46.13 99.99 46.64 99.36C47.6964 98.2065 48.8182 97.1147 50 96.09C50.6854 95.4334 51.3299 94.7354 51.93 94L54.05 91.62C54.48 91.13 54.92 90.62 55.34 90.14C55.97 89.38 56.62 88.62 57.2 87.82C57.66 87.21 58.01 86.53 58.44 85.91C58.53 85.78 58.61 85.63 58.71 85.5C59.08 85 59.28 84.9 59.66 85.01C59.7484 85.0308 59.8352 85.0575 59.92 85.09C60.18 85.2 60.23 85.55 60.05 85.99C59.5014 87.3129 58.7637 88.5491 57.86 89.66C57.2 90.51 56.5 91.32 55.8 92.14L55.77 92.08Z" fill="#221F1F"/>
<path d="M19.69 62.38C20.96 63.21 22.28 63.98 23.61 64.72C24.1 64.99 24.61 65.18 25.12 65.45C26.8533 66.3966 28.6067 67.3133 30.38 68.2C31.17 68.6 31.98 68.9 32.83 69.2C33.4177 69.4227 33.9701 69.7292 34.47 70.11C34.9971 70.5162 35.4076 71.0543 35.66 71.67C35.8 72.06 35.4 72.19 34.88 72.2C34.3409 72.2343 33.7999 72.1768 33.28 72.03C32.8619 71.8624 32.4345 71.7188 32 71.6L30.43 71C29.3512 70.553 28.311 70.0178 27.32 69.4C26.11 68.65 24.73 68.17 23.46 67.51C22.19 66.85 20.67 66 19.31 65.19C18.47 64.69 17.64 64.19 16.82 63.66C15.56 62.88 14.36 61.99 13.16 61.13C12.71 60.78 12.21 60.49 11.74 60.13C11.2725 59.7787 10.8251 59.4015 10.4 59C10.22 58.82 10.02 58.65 9.84 58.46C9.21 57.69 9.18 57.3 9.5 56.84C9.57099 56.7325 9.64777 56.6291 9.73 56.53C10.03 56.24 10.54 56.33 11.04 56.69C11.8 57.23 12.63 57.69 13.46 58.22C14.29 58.75 15.07 59.31 15.91 59.85C17.15 60.67 18.4 61.53 19.72 62.29L19.69 62.38Z" fill="#221F1F"/>
<path d="M47.41 63.3C51.29 60.46 55.23 57.76 59.17 55.06L63.45 52.06L78.75 41.84C81 40.32 83.23 38.74 85.42 37.16C88.23 35.16 90.98 33.01 93.93 31.16C94.87 30.6 94.93 30.91 94.42 31.77C93.5992 33.1216 92.5264 34.303 91.26 35.25C85.62 39.56 79.79 43.59 73.81 47.5C70.23 49.87 66.63 52.48 63 55C59.05 57.73 55.1 60.45 51.22 63.25C48.84 64.98 46.44 66.73 44.22 68.62C43.81 68.98 43.41 69.35 43.05 69.73C42.69 70.11 42.44 70.33 42.5 70.67C42.5 71.67 42.62 72.84 42.72 73.94C42.95 76.15 43.25 78.36 43.57 80.55C44.08 83.97 44.76 87.29 45.27 90.68C45.39 91.43 45.52 92.16 45.61 92.92C45.95 95.74 45.82 96.7 45.23 97.32C45.1121 97.471 44.978 97.6084 44.83 97.73C44.35 97.98 43.99 96.9 43.66 94.9C42.66 88.9 41.48 82.62 40.66 76.16C40.52 74.95 40.38 73.75 40.29 72.51L40.22 71.57V70.49C40.2426 69.8986 40.4489 69.3289 40.81 68.86C41.0411 68.5606 41.2916 68.2766 41.56 68.01C43.3764 66.3184 45.2968 64.742 47.31 63.29L47.41 63.3Z" fill="#221F1F"/>
</mask>
<g mask="url(#mask0_7_721)">
<rect x="-11" y="-40" width="152" height="175" fill="white"/>
</g>
</svg>
