<svg width="128" height="128" viewBox="0 0 128 128" fill="none" xmlns="http://www.w3.org/2000/svg">
<mask id="mask0_13_2" style="mask-type:alpha" maskUnits="userSpaceOnUse" x="3" y="11" width="122" height="105">
<path d="M9.66 29C13.884 22.7259 19.7701 17.7504 26.66 14.63C29.1664 13.5127 31.804 12.7164 34.51 12.26C44.0248 10.6008 53.8187 12.4331 62.09 17.42C65.7298 19.5881 68.9702 22.3651 71.67 25.63C75.219 29.7626 77.5796 34.781 78.5 40.15C78.8 41.81 78.08 41.67 77.12 40.47C76.5283 39.7041 76.022 38.8759 75.61 38C74.9312 36.8816 74.3491 35.7074 73.87 34.49C71.7706 29.8309 68.6177 25.723 64.66 22.49C60.6362 19.2202 55.9883 16.8044 51 15.39C50.2487 15.1598 49.4839 14.9761 48.71 14.84C47.94 14.71 47.17 14.48 46.38 14.42C44.7919 14.215 43.1911 14.1247 41.59 14.15C38.3734 14.1731 35.1721 14.5963 32.06 15.41C30.3654 15.8524 28.7125 16.4413 27.12 17.17C26.322 17.5384 25.5443 17.9489 24.79 18.4L23.63 19.05L22.52 19.78C19.5345 21.7217 16.8407 24.0787 14.52 26.78C13.109 28.4468 11.8317 30.2223 10.7 32.09C9.64507 33.9855 8.74224 35.9617 8 38C5.64142 44.2303 5.02265 50.9849 6.21 57.54C7.21028 62.5072 9.30808 67.1879 12.35 71.24C12.66 71.69 13.01 72.11 13.35 72.53C13.69 72.95 14.04 73.38 14.42 73.79C17.17 76.86 18.16 77.71 18.42 78.86C18.4932 79.1082 18.5434 79.3626 18.57 79.62C18.57 79.97 18.15 79.94 17.43 79.62C16.9736 79.3852 16.5327 79.1213 16.11 78.83C15.62 78.46 15.11 78 14.47 77.46C10.8274 74.0983 7.94033 70.0013 6 65.44C5.01012 63.1001 4.25313 60.6684 3.74 58.18C3.25309 55.6624 3.00532 53.1043 3 50.54C3.03809 46.7228 3.62407 42.9307 4.74 39.28C5.88278 35.6474 7.51799 32.1886 9.6 29H9.66Z" fill="#231F20"/>
<path d="M36.2599 89.63C34.1202 91.5083 31.6614 92.9884 29 94C28.0664 94.4047 27.1117 94.7585 26.14 95.06C25.39 95.3 24.62 95.47 23.86 95.65L22.71 95.89L22.13 95.99L21.41 96.12C20.19 96.32 19 96.48 17.93 96.55C16.86 96.62 15.46 96.85 15.45 96.47C16 95.84 16.63 95.12 17.12 94.47L17.83 93.59L18.29 92.79C18.4467 92.5427 18.5806 92.2816 18.69 92.01L18.9 91.51C19.1433 90.8316 19.3371 90.1364 19.48 89.43C19.87 87.61 19.89 85.72 20.21 83.85C20.3 83.28 20.97 83.33 21.63 83.85C22.0241 84.1849 22.3324 84.6093 22.529 85.0877C22.7256 85.5662 22.8048 86.0847 22.76 86.6C22.6027 88.2252 22.2673 89.8281 21.76 91.38C21.62 91.77 21.48 92.17 21.31 92.55L21.08 93.06C20.9856 93.1279 20.8955 93.2013 20.81 93.28L20.66 93.41C20.66 93.41 20.66 93.41 20.66 93.47C20.66 93.53 20.73 93.54 20.81 93.58C20.9582 93.6122 21.1117 93.6122 21.26 93.58H21.41H21.63L22.07 93.49L22.94 93.29C24.09 93 25.23 92.63 26.35 92.29C28.8096 91.4978 31.1308 90.3271 33.2299 88.82C33.5506 88.5955 33.8548 88.3482 34.1399 88.08C34.43 87.81 34.7499 87.57 35.0099 87.29L36.0099 86.14L36.32 85.79C36.32 85.79 36.32 85.73 36.4 85.72H36.5H36.72L37.58 85.89L38.63 86.08C38.94 86.08 39.24 86.19 39.5499 86.23C40.16 86.33 40.77 86.4 41.38 86.47C42.5809 86.6189 43.7898 86.6957 45 86.7C46.8729 86.6149 48.7324 86.3402 50.5499 85.88L51.74 85.57C53.22 85.21 53.7399 85.23 54.2299 85.82C54.3548 85.9431 54.4685 86.077 54.57 86.22C54.8699 86.69 54.37 87.32 53.24 87.75C49.7149 88.9973 45.9683 89.4946 42.24 89.21C40.8349 89.1346 39.4357 88.9743 38.0499 88.73L37.57 88.65H37.47C37.41 88.65 37.2999 88.6 37.32 88.65L37.1399 88.86C36.9022 89.1508 36.6377 89.4187 36.3499 89.66L36.2599 89.63Z" fill="#231F20"/>
<path d="M81.91 46.81C79.4803 47.5299 77.1339 48.5053 74.91 49.72C72.6982 50.9716 70.6293 52.4604 68.74 54.16C66.8638 55.8976 65.2081 57.8589 63.81 60C60.3816 65.2816 58.6028 71.464 58.7 77.76C58.7607 84.4061 61.0137 90.8463 65.1092 96.081C69.2047 101.316 74.9137 105.052 81.35 106.71C84.2182 107.438 87.1716 107.774 90.13 107.71C90.87 107.71 91.61 107.71 92.34 107.61C93.07 107.51 93.82 107.52 94.55 107.38L95.65 107.21L96.49 107.08L96.92 107.02H97.13C97.19 107.02 97.23 107.12 97.28 107.17L98.28 108.3C98.5173 108.551 98.7749 108.781 99.05 108.99C101.036 110.527 103.366 111.557 105.84 111.99C107.095 112.232 108.364 112.389 109.64 112.46H110.25H111.33L111.28 112.38C111.138 112.188 111.008 111.987 110.89 111.78L110.72 111.45L110.54 111.09C110.46 110.94 110.4 110.79 110.33 110.65C109.786 109.46 109.422 108.197 109.25 106.9C109.12 105.75 109.25 105.18 109.51 105.09C109.77 105 110 105.38 110.35 106.09C110.7 106.8 111.17 107.73 111.85 108.8C112.02 109.07 112.2 109.34 112.4 109.63L112.7 110.06L112.86 110.28L113.15 110.71C113.95 111.91 115.24 113.43 116.41 114.98C116.11 115.04 115.67 115.08 115.26 115.13L114.01 115.27C113.57 115.27 113.13 115.36 112.67 115.38H111.21H110.48H109.8H109.02C108.5 115.33 108.02 115.3 107.45 115.22C106.398 115.095 105.356 114.901 104.33 114.64C102.192 114.136 100.16 113.256 98.33 112.04C97.8586 111.741 97.4106 111.407 96.99 111.04C96.7692 110.866 96.562 110.675 96.37 110.47L96.08 110.15L94.64 110.35C93.64 110.48 92.58 110.53 91.55 110.61C90.52 110.69 89.49 110.61 88.45 110.61C84.285 110.459 80.1806 109.565 76.33 107.97C72.4797 106.359 68.9809 104.012 66.03 101.06C64.2589 99.2146 62.6931 97.1828 61.36 95C60.0126 92.8569 58.9027 90.5735 58.05 88.19C56.3353 83.3877 55.7568 78.2534 56.36 73.19C56.7072 70.4535 57.3786 67.768 58.36 65.19C59.3126 62.5843 60.6001 60.1136 62.19 57.84C62.9746 56.7006 63.8261 55.6086 64.74 54.57C65.6873 53.5535 66.6888 52.5888 67.74 51.68C69.8139 49.8476 72.1042 48.2759 74.56 47C80.5909 43.8201 87.4057 42.4322 94.2 43C95.476 43.1016 96.7449 43.2786 98 43.53C98.6315 43.6479 99.2558 43.8015 99.87 43.99C100.49 44.17 101.12 44.29 101.72 44.52C102.936 44.9404 104.125 45.4346 105.28 46C105.86 46.28 106.44 46.55 107.01 46.85L108.65 47.85L109.47 48.35L110.25 48.92L111.79 50.06L113.23 51.32C113.716 51.7315 114.177 52.1724 114.61 52.64L115.93 54C116.35 54.48 116.73 55 117.13 55.49C120.366 59.5791 122.586 64.3769 123.61 69.49C124.363 73.3582 124.387 77.3331 123.68 81.21C123.371 82.9137 122.913 84.5869 122.31 86.21C121.54 88.3843 120.448 90.4306 119.07 92.28C118.479 93.1514 117.677 93.8599 116.74 94.34C116.443 94.4982 116.131 94.6288 115.81 94.73C115.41 94.73 115.55 94.25 116.07 93.26C116.59 92.27 117.47 90.77 118.45 88.8C121.435 82.8177 122.309 76.0018 120.93 69.46C119.519 62.7911 115.888 56.7979 110.63 52.46C108.691 50.8343 106.55 49.4663 104.26 48.39C103.12 47.855 101.947 47.3908 100.75 47C100.15 46.81 99.53 46.67 98.92 46.5L98 46.22C97.69 46.15 97.37 46.11 97.06 46.05C92.0223 45.1305 86.8388 45.4114 81.93 46.87L81.91 46.81Z" fill="#231F20"/>
<path d="M92.42 62.25C92.2296 62.0945 92.0088 61.9806 91.7717 61.9156C91.5346 61.8506 91.2866 61.8361 91.0435 61.8728C90.8005 61.9095 90.5678 61.9968 90.3605 62.1289C90.1532 62.2611 89.9759 62.4352 89.84 62.64C89.77 67.82 93.77 76.08 95.84 80.83C96.91 80.67 96.84 79.98 96.84 79.1C96.77 75.82 93.3 63 92.42 62.25Z" fill="#231F20"/>
<path d="M81.82 65.23C81.4085 64.9663 80.9094 64.876 80.4316 64.9791C79.9538 65.0821 79.5362 65.3701 79.27 65.78C79.99 70.69 84.06 78.94 86.41 83.55C87.47 83.33 87.41 82.64 87.3 81.76C87 78.49 82.81 65.81 81.82 65.23Z" fill="#231F20"/>
<path d="M47.14 46.37C48.4948 44.9977 49.2715 43.158 49.31 41.23C49.3144 40.5249 49.2098 39.8233 49 39.15C48.42 36.79 45.8 35.15 43.07 35.42C41.8569 35.4998 40.6822 35.8776 39.65 36.52C38.3431 37.3552 37.2805 38.5214 36.57 39.9C36.32 40.32 36.01 40.18 35.86 39.63C35.762 39.2053 35.7578 38.7642 35.8476 38.3377C35.9374 37.9111 36.1191 37.5092 36.38 37.16C37.5347 35.5586 39.1879 34.3855 41.0808 33.8245C42.9737 33.2635 44.9993 33.3463 46.84 34.06C47.9792 34.5181 49.0034 35.2214 49.84 36.12C50.6719 37.0449 51.2537 38.1671 51.53 39.38C52.0823 41.9463 51.6618 44.6262 50.35 46.9C49.4942 48.2367 48.3495 49.3644 47 50.2C45.1 51.46 43.06 52.27 41.4 53.46C40.7742 53.8892 40.2149 54.4081 39.74 55C39.3078 55.5896 38.9516 56.2313 38.68 56.91C38.53 57.24 38.41 57.58 38.22 57.91C37.51 59.15 37.04 59.4 36.22 59.2C36.0361 59.1699 35.8554 59.1231 35.68 59.06C35.12 58.81 35.04 58.06 35.36 57.2C35.6 56.53 35.81 55.87 36.15 55.13C36.5161 54.2833 37.0196 53.5028 37.64 52.82C38.8567 51.5816 40.2605 50.5423 41.8 49.74C43.88 48.58 45.8 47.65 47.05 46.31L47.14 46.37Z" fill="#231F20"/>
<path d="M35.2401 65.0801V65.27C35.1883 65.5164 35.0831 65.7484 34.9319 65.9496C34.7806 66.1508 34.5871 66.3164 34.3649 66.4346C34.1427 66.5529 33.8972 66.621 33.6458 66.634C33.3945 66.647 33.1433 66.6047 32.91 66.5101C32.579 66.4371 32.2739 66.2761 32.0269 66.0439C31.78 65.8118 31.6004 65.5172 31.5071 65.1913C31.4139 64.8654 31.4104 64.5204 31.4972 64.1928C31.584 63.8651 31.7577 63.567 32 63.3301C33.39 61.8001 35.4901 63.2601 35.2401 65.0801Z" fill="#231F20"/>
<path d="M90.74 87.77C90.81 88.77 90.25 89.64 88.59 89.41C88.2594 89.3624 87.9475 89.2276 87.6862 89.0194C87.425 88.8113 87.224 88.5373 87.1038 88.2256C86.9836 87.914 86.9487 87.5759 87.0025 87.2463C87.0563 86.9166 87.197 86.6073 87.41 86.35C88.88 84.34 90.62 86.19 90.74 87.77Z" fill="#231F20"/>
<path d="M99.7799 84.84C99.7799 85.84 99.0599 86.63 97.4399 86.2C97.1144 86.1134 96.8181 85.9409 96.582 85.7006C96.3459 85.4602 96.1788 85.1609 96.098 84.8338C96.0173 84.5067 96.0259 84.164 96.123 83.8414C96.2201 83.5188 96.4021 83.2282 96.6499 83C98.3499 81.2 99.8599 83.25 99.7799 84.84Z" fill="#231F20"/>
<path d="M74.7 106.63C77.6748 108.143 80.8715 109.172 84.17 109.68C85.3762 109.851 86.5919 109.948 87.81 109.97H89.43C89.97 109.97 90.5 109.97 91.04 109.9L92.66 109.81C93.2 109.81 93.73 109.66 94.26 109.59L96.1 109.32C96.35 109.2 96.45 109.49 96.62 109.62L96.99 110.01L97.53 110.58C97.91 110.94 98.34 111.25 98.74 111.58C99.14 111.91 99.63 112.15 100.08 112.44C101.756 113.329 103.573 113.924 105.45 114.2C107.869 114.523 110.316 114.597 112.75 114.42C113.49 114.42 113.46 114.72 112.85 115.14C111.837 115.718 110.685 116.005 109.52 115.97C106.876 115.99 104.249 115.543 101.76 114.65C100.495 114.191 99.2948 113.569 98.19 112.8C97.6487 112.397 97.1312 111.963 96.64 111.5L95.95 110.75V110.69C95.95 110.69 95.87 110.69 95.86 110.69C92.7389 111.212 89.5706 111.396 86.41 111.24C82.9136 110.956 79.4843 110.119 76.25 108.76C75.75 108.54 75.25 108.34 74.77 108.12L73.35 107.35C72.3999 106.849 71.4845 106.284 70.61 105.66C67.9597 103.791 65.6007 101.54 63.61 98.98C62.08 97.02 60.7595 94.9051 59.67 92.67C59.43 92.18 59.2 91.67 58.96 91.19C58.25 89.27 58.15 88.61 58.35 88.1C58.3808 87.9808 58.428 87.8664 58.49 87.76C58.69 87.51 59.17 88.21 59.71 89.56C61.35 93.6775 63.7596 97.4447 66.81 100.66C69.1112 103.09 71.8184 105.1 74.81 106.6L74.7 106.63Z" fill="#231F20"/>
<path d="M38.29 89.4801L37.66 89.3601C37.66 89.3601 37.6 89.3601 37.59 89.3601L36.7 90.2801C35.9695 90.9273 35.1943 91.5221 34.38 92.0601C33.8002 92.4619 33.1993 92.8324 32.58 93.1701C30.3922 94.2785 28.088 95.1404 25.71 95.7401C24.66 96.0101 23.62 96.2901 22.57 96.5301C21.2391 96.9043 19.8706 97.1291 18.49 97.2001C17.63 97.2001 18.59 95.8301 20.07 95.5701C22.7708 95.1121 25.4422 94.4943 28.07 93.7201C29.6641 93.2105 31.1916 92.5122 32.62 91.6401C33.0231 91.424 33.4107 91.1801 33.78 90.9101C34.1705 90.6731 34.5416 90.4056 34.89 90.1101C35.23 89.8101 35.61 89.5501 35.89 89.2301L37 88.0701L37.12 87.9501H37.28L37.62 88.0101L38.13 88.1001L38.98 88.2401C39.55 88.3301 40.12 88.4201 40.69 88.4901C42.4071 88.7503 44.1439 88.8574 45.88 88.8101C47.1861 88.7271 48.4765 88.4784 49.72 88.0701L50.52 87.7801C51.52 87.4301 51.88 87.3701 52.23 87.6201C52.3155 87.6685 52.3959 87.7255 52.47 87.7901C52.67 88.0001 52.33 88.3901 51.58 88.7901C49.2007 89.8507 46.5995 90.3174 44 90.1501C42.0824 90.0489 40.1725 89.8352 38.28 89.5101L38.29 89.4801Z" fill="#231F20"/>
<path d="M88.9 31.33C88.9202 31.122 89.0221 30.9304 89.1833 30.7974C89.3445 30.6643 89.5519 30.6005 89.76 30.62C91.91 30.82 88.68 33.6 88.9 31.33Z" stroke="#231F20" stroke-width="0.6" stroke-miterlimit="10"/>
<path d="M45.4199 102.34C45.4402 102.132 45.5421 101.94 45.7033 101.807C45.8645 101.674 46.0718 101.611 46.2799 101.63C48.4299 101.83 45.2099 104.6 45.4199 102.34Z" stroke="#231F20" stroke-width="0.6" stroke-miterlimit="10"/>
<path d="M110.05 27.62C110.132 27.652 110.207 27.7 110.271 27.7611C110.335 27.8222 110.385 27.8953 110.421 27.9761C110.456 28.0569 110.475 28.1439 110.477 28.2321C110.478 28.3203 110.462 28.4079 110.43 28.49C109.77 30.2 108.26 26.93 110.05 27.62Z" fill="#231F20"/>
</mask>
<g mask="url(#mask0_13_2)">
<rect x="-63" y="-34" width="284" height="186" fill="white"/>
</g>
</svg>
