<svg width="128" height="128" viewBox="0 0 128 128" fill="none" xmlns="http://www.w3.org/2000/svg">
<mask id="mask0_7_957" style="mask-type:alpha" maskUnits="userSpaceOnUse" x="1" y="17" width="127" height="93">
<path d="M72.82 47.2501L67.82 48.1001L66 48.4601L59.54 49.6101L56.69 50.1801C55.4734 50.4891 54.2319 50.6899 52.98 50.7801C52.56 50.7801 52.64 50.5501 52.98 50.2801C53.4182 49.9263 53.9368 49.6859 54.49 49.5801C56.94 49.0701 59.42 48.5801 61.94 48.1901C63.44 47.9601 64.94 47.5901 66.52 47.3001L71.52 46.3801L74.64 45.8401L79.38 45.0901C80.6 44.9101 81.78 44.6401 83.01 44.4901L83.81 44.3701C84.81 44.2901 85.16 44.3701 85.38 44.6701C85.4365 44.7352 85.4867 44.8055 85.53 44.8801C85.62 45.1201 85.22 45.3401 84.53 45.4301L77.9 46.4301L72.9 47.2601L72.82 47.2501Z" fill="#231F20"/>
<path d="M29.23 65.7301C31.17 66.7168 33.12 67.6868 35.08 68.6401L37.25 69.6401L44.84 73.2901C45.96 73.8301 47.11 74.3501 48.23 74.8601C49.7193 75.4641 51.1433 76.218 52.48 77.1101C52.9 77.4001 52.72 77.5301 52.25 77.5101C51.9465 77.4896 51.6454 77.4428 51.35 77.3701C50.9429 77.2961 50.5465 77.1718 50.17 77.0001C47.25 75.6701 44.24 74.4601 41.33 73.0001C39.58 72.1301 37.69 71.3601 35.87 70.5401C33.87 69.6201 31.87 68.6835 29.87 67.7301L26.23 65.9001C24.39 65.0001 22.56 64.0301 20.74 63.1101C19.34 62.3701 17.91 61.7301 16.52 60.9801C16.2032 60.8367 15.8958 60.673 15.6 60.4901C14.5 59.7801 14.23 59.4401 14.22 58.9701C14.2054 58.864 14.2054 58.7563 14.22 58.6501C14.22 58.3601 14.87 58.4101 15.72 58.8001C18.23 59.9701 20.72 61.3901 23.39 62.7101C25.33 63.7101 27.28 64.7101 29.25 65.7101L29.23 65.7301Z" fill="#231F20"/>
<path d="M52.24 59.45L51.95 62.45C51.95 62.82 51.95 63.19 51.89 63.57L51.53 67.49C51.53 68.07 51.47 68.65 51.46 69.23C51.4835 69.9718 51.4467 70.7142 51.35 71.45C51.28 71.91 50.35 71.32 50.3 70.45C50.2402 68.9268 50.3104 67.4013 50.51 65.89C50.64 64.98 50.61 64.03 50.66 63.09L50.86 60.01L51 58.17C51.06 57.17 51.15 56.25 51.17 55.3C51.17 54.56 51.17 53.83 51.17 53.1C51.17 52.94 51.17 52.78 51.17 52.61C51.1676 52.3918 51.2049 52.1749 51.28 51.97C51.3129 51.906 51.361 51.8511 51.42 51.81C51.444 51.761 51.4791 51.7184 51.5225 51.6854C51.5659 51.6524 51.6164 51.63 51.67 51.62C51.7021 51.6128 51.7357 51.6156 51.7661 51.6281C51.7965 51.6407 51.8223 51.6623 51.84 51.69C51.84 51.78 51.78 51.57 51.84 51.69C51.8607 51.7573 51.891 51.8213 51.93 51.88C51.9544 51.9164 51.9906 51.9432 52.0325 51.956C52.0745 51.9688 52.1195 51.9666 52.16 51.95C52.24 51.86 52.26 51.95 52.29 52.04C52.3238 52.1338 52.3473 52.2311 52.36 52.33C52.5193 53.6805 52.5628 55.0421 52.49 56.4C52.49 57.4 52.39 58.45 52.32 59.48L52.24 59.45Z" fill="#231F20"/>
<path d="M32.66 53.09C32.66 54.03 32.64 54.97 32.6 55.91V56.91L32.54 60.56C32.54 61.1 32.54 61.64 32.54 62.18C32.6143 62.8839 32.584 63.595 32.45 64.29C32.4 64.51 32.15 64.44 31.93 64.23C31.7963 64.1191 31.6865 63.9821 31.6074 63.8273C31.5283 63.6726 31.4816 63.5034 31.47 63.33C31.47 61.97 31.38 60.57 31.47 59.15C31.53 58.31 31.47 57.43 31.42 56.56C31.37 55.69 31.42 54.65 31.42 53.7V51.94L31.51 49.27C31.51 48.58 31.51 47.9 31.51 47.21C31.5003 47.0602 31.5003 46.9099 31.51 46.76C31.57 46.2 31.67 46.03 31.95 45.95L32.14 45.89C32.35 45.89 32.5 46.11 32.54 46.52C32.6407 47.754 32.6707 48.9926 32.63 50.23L32.58 53.06L32.66 53.09Z" fill="#231F20"/>
<path d="M58.76 20.26C59.4502 20.0491 60.1512 19.8755 60.86 19.74C61.12 19.68 61.36 19.58 61.62 19.54C62.53 19.39 63.46 19.32 64.37 19.21C64.78 19.16 65.18 19.08 65.58 19.02C66.0992 18.9383 66.6245 18.9015 67.15 18.91C67.32 18.91 67.29 18.91 67.15 18.91C67.01 18.91 66.82 19.18 66.56 19.34C65.6736 19.9448 64.6787 20.3727 63.63 20.6C63.01 20.71 62.41 20.99 61.78 21.15C61.15 21.31 60.41 21.49 59.72 21.65C59.3 21.75 58.87 21.85 58.47 21.97C58.2176 22.0223 57.9769 22.1206 57.76 22.26C57.58 22.4523 57.4676 22.6981 57.44 22.96C57.36 23.42 57.44 23.96 57.37 24.43V24.77C57.3458 24.9939 57.2885 25.2129 57.2 25.42C57.2 25.42 57.2 25.47 57.2 25.48C57.1893 25.3313 57.152 25.1856 57.09 25.05C56.85 24.16 56.09 23.35 56.52 21.87C56.6291 21.5725 56.8073 21.3052 57.04 21.09C57.2369 20.9113 57.4593 20.763 57.7 20.65C58.0479 20.48 58.4052 20.3297 58.77 20.2L58.76 20.26Z" fill="#231F20"/>
<path d="M49.45 33.47H49.37H49.08L48.38 33.42C48.1968 33.4307 48.0132 33.4307 47.83 33.42C47.16 33.42 46.44 33.23 45.73 33.18C45.41 33.18 45.1 33.18 44.79 33.18C44.3558 33.2005 43.9217 33.1394 43.51 33C43.39 32.94 43.41 33 43.51 32.94C43.61 32.88 43.76 32.63 43.94 32.46C44.2043 32.1281 44.5326 31.8527 44.9053 31.65C45.2781 31.4473 45.6877 31.3215 46.11 31.28C46.6023 31.201 47.0898 31.0942 47.57 30.96C48.1741 30.8808 48.7859 30.8808 49.39 30.96C49.9353 31.014 50.4429 31.2624 50.82 31.66C51.2015 32.181 51.4175 32.8047 51.44 33.45C51.5206 33.8345 51.5475 34.2282 51.52 34.62C51.52 34.71 51.52 34.79 51.52 34.88C51.52 35.19 51.39 35.33 51.4 35.4C51.3134 35.3027 51.2162 35.2155 51.11 35.14C50.84 34.85 50.52 34.53 50.22 34.24C49.92 33.95 49.69 33.68 49.52 33.5C49.4677 33.4425 49.4026 33.398 49.33 33.37H49.27C49.27 33.37 49.27 33.37 49.32 33.37C49.3836 33.3246 49.4408 33.2708 49.49 33.21C49.5146 33.1833 49.5348 33.153 49.55 33.12C49.55 33.19 49.75 32.51 49.66 32.8V32.86L49.59 33.06C49.5529 33.2012 49.5262 33.345 49.51 33.49L49.45 33.47Z" fill="#231F20"/>
<path d="M18.57 87.83C21.51 89.68 24.46 91.52 27.44 93.32C28.52 93.98 29.65 94.57 30.73 95.23L42.18 102.23C43.88 103.23 45.62 104.23 47.34 105.23C49.55 106.46 51.75 107.74 53.84 109.23C54.49 109.69 54.25 109.89 53.5 109.85C52.3447 109.741 51.2176 109.429 50.17 108.93C47.81 107.84 45.55 106.6 43.29 105.33C41.03 104.06 38.79 102.76 36.57 101.33C33.92 99.69 31.05 98.18 28.29 96.57C25.2634 94.7967 22.2634 93 19.29 91.18C17.44 90.06 15.6 88.93 13.76 87.77C13.07 87.34 12.38 86.89 11.69 86.43C11.34 86.21 11 85.97 10.69 85.73C10.5 85.58 10.21 85.41 10.01 85.23L9.84002 85.09C9.81543 85.0214 9.79539 84.9513 9.78002 84.88C9.73403 84.7426 9.69728 84.6023 9.67002 84.46C9.5811 83.9972 9.51767 83.5298 9.48002 83.06L9.38002 81.82L9.20002 79.37C9.01002 76.85 8.71002 74.37 8.57002 71.89C8.57002 71.34 8.49002 70.8 8.47002 70.24C8.41697 69.5056 8.47427 68.7675 8.64002 68.05C8.75193 67.6689 8.96233 67.324 9.25002 67.05C9.33963 66.9432 9.44018 66.846 9.55002 66.76C9.71002 66.66 9.85002 66.82 10.04 67.19C10.3152 67.7149 10.4978 68.2832 10.58 68.87C10.92 71.08 11.2 73.35 11.42 75.65C11.64 77.95 11.76 80.3 11.98 82.58L12.09 83.58C12.74 84.05 13.51 84.51 14.22 84.98L18.66 87.74L18.57 87.83Z" fill="#231F20"/>
<path d="M54.62 95.86V99.34C54.62 99.77 54.68 100.19 54.68 100.61L54.62 105.11C54.62 105.78 54.62 106.44 54.7 107.11C54.8398 107.971 54.8398 108.849 54.7 109.71C54.64 109.99 54.24 109.91 53.85 109.71C53.6405 109.601 53.457 109.448 53.312 109.262C53.167 109.075 53.064 108.86 53.01 108.63C52.8059 106.925 52.7423 105.206 52.82 103.49C52.8414 102.425 52.798 101.36 52.69 100.3L52.6 96.78V94.61C52.6 93.52 52.6 92.41 52.6 91.33C52.6 90.48 52.42 89.65 52.41 88.79C52.41 88.6 52.41 88.42 52.41 88.23C52.41 87.52 52.62 87.23 53.06 87.23C53.1578 87.2005 53.2583 87.1804 53.36 87.17C53.7 87.17 53.96 87.46 54.05 87.93C54.21 88.64 54.38 89.38 54.48 90.14C54.58 90.9 54.63 91.67 54.69 92.44L54.79 94.18V95.93L54.62 95.86Z" fill="#231F20"/>
<path d="M117.31 96L102.31 99.75C100.49 100.2 98.69 100.75 96.87 101.15L77.55 105.65L69 107.72C65.3884 108.708 61.7131 109.447 58 109.93C56.79 110 57 109.64 57.85 109.1C59.2902 108.24 60.8557 107.609 62.49 107.23C69.86 105.37 77.26 103.56 84.77 101.9C89.26 100.9 93.86 99.59 98.42 98.41L113.42 94.57C116.51 93.77 119.59 92.97 122.65 92.12L124.5 91.59L125.02 91.44C125.08 91.44 125.24 91.44 125.21 91.31V91.05C125.21 87.6 125.21 84.15 125.21 80.73C125.21 77 125.06 73.35 125.09 69.65C125.09 68.83 125.09 68.03 125.09 67.21C125.25 64.21 125.56 63.21 126.26 62.6C126.402 62.4552 126.564 62.3307 126.74 62.23C127.26 62.01 127.49 63.23 127.51 65.44C127.6 71.96 127.62 78.88 127.62 85.83C127.62 87.83 127.62 89.86 127.62 91.92L127.45 92.43L127.36 92.68V92.8V92.87C127.54 93 127.11 92.69 127.15 92.73L126.88 93.15C126.81 93.31 126.58 93.37 126.44 93.48C126.072 93.6351 125.695 93.7654 125.31 93.87L124.69 94.05L122.25 94.72L117.38 96.03L117.31 96Z" fill="#231F20"/>
<path d="M97.39 67.5701L86.12 70.0001L82 71.0001L67.54 74.1901C65.41 74.6701 63.26 75.19 61.16 75.74C58.44 76.39 55.73 77.13 52.97 77.59C52.12 77.75 52.19 77.5901 52.85 77.2501C53.17 77.0501 53.65 76.78 54.23 76.49C54.8656 76.136 55.5358 75.8478 56.23 75.63L60.33 74.3601C61.7 73.9501 63.09 73.5901 64.47 73.2301C67.2433 72.4901 70.0367 71.8234 72.85 71.2301C76.23 70.5201 79.68 69.56 83.11 68.74L94.43 66.1L101.43 64.49C104.95 63.68 108.5 62.9001 111.98 62.0501C114.69 61.4001 117.32 60.6401 119.98 59.9501C120.57 59.7901 121.14 59.6201 121.74 59.4801C122.526 59.2745 123.338 59.1836 124.15 59.21C124.56 59.2093 124.962 59.3237 125.31 59.5401C125.444 59.6148 125.572 59.7019 125.69 59.8001C125.97 60.0801 125.14 60.6201 123.58 61.2501C118.88 62.7501 113.84 63.9301 108.76 65.0801L97.41 67.6201L97.39 67.5701Z" fill="#231F20"/>
<path d="M26.58 65.2401C28.58 66.2734 30.6167 67.2734 32.69 68.2401L34.95 69.2401L42.88 73.0301C44.06 73.5901 45.25 74.1201 46.43 74.6501C47.9954 75.267 49.4879 76.0551 50.88 77.0001C51.31 77.3101 51.1 77.4701 50.59 77.4801C50.2548 77.4766 49.9204 77.4465 49.59 77.3901C49.1587 77.3339 48.7378 77.216 48.34 77.0401C45.34 75.6801 42.14 74.4501 39.1 72.8901C37.28 71.9701 35.29 71.2101 33.39 70.3501C31.3 69.4101 29.21 68.4401 27.14 67.4501L23.31 65.6001C21.39 64.6601 19.48 63.6001 17.58 62.6801C16.11 61.9101 14.58 61.2601 13.16 60.4501C12.84 60.2801 12.51 60.1201 12.16 59.9201C11.03 59.1301 10.77 58.7301 10.82 58.2001C10.8089 58.0803 10.8089 57.9598 10.82 57.8401C10.92 57.5001 11.57 57.5501 12.43 57.9701C15.01 59.2101 17.64 60.6801 20.37 62.0601C22.37 63.0601 24.43 64.1501 26.48 65.1601L26.58 65.2401Z" fill="#231F20"/>
<path d="M112.9 50.1501C112.9 51.1501 112.9 52.2101 112.9 53.2501C112.9 53.6201 112.98 53.9901 112.99 54.3701C112.99 55.7101 112.99 57.0401 112.99 58.3701C112.996 58.9616 113.033 59.5523 113.1 60.1401C113.225 60.8949 113.225 61.6652 113.1 62.4201C113.1 62.6601 112.74 62.6401 112.39 62.4201C111.989 62.2313 111.677 61.8943 111.52 61.4801C111.313 60.7429 111.189 59.9848 111.15 59.2201C111.085 58.4514 111.085 57.6787 111.15 56.9101C111.156 55.9634 111.092 55.0175 110.96 54.0801L110.76 51.0001L110.69 49.0701C110.69 48.0701 110.69 47.1201 110.58 46.1501C110.52 45.4001 110.33 44.6701 110.24 43.9201C110.23 43.7569 110.23 43.5932 110.24 43.4301C110.228 43.297 110.228 43.1631 110.24 43.0301C110.286 42.9344 110.347 42.8466 110.42 42.7701C110.546 42.6312 110.709 42.5307 110.89 42.4801L111.14 42.3901C111.4 42.3301 111.69 42.5801 112 43.0101C112.12 43.3401 112.25 43.6601 112.36 44.0101C112.47 44.3601 112.48 44.6701 112.54 45.0101C112.64 45.6801 112.7 46.3701 112.76 47.0101C112.84 48.0101 112.9 49.0701 112.94 50.1001L112.9 50.1501Z" fill="#231F20"/>
<path d="M79.56 47.8501C75.56 48.5501 71.56 49.2401 67.56 49.9801L63.22 50.8801C60.68 51.3901 58.11 51.8801 55.64 52.5301L54.71 52.7601L53.92 53.0201L53.73 53.0801H53.63C53.63 53.0801 53.63 53.1401 53.63 53.1701V53.3701V53.7201L53.43 57.6201C53.32 59.9301 53.26 62.2601 53.22 64.5501C53.22 67.5501 53.22 70.4701 52.95 73.4101C52.82 75.2401 51.26 72.9001 51.23 69.4801C51.23 66.4801 51.23 63.4801 51.34 60.4301C51.34 58.9201 51.45 57.4301 51.53 55.9001L51.67 53.6201V53.2901C51.6839 53.1279 51.7244 52.9691 51.79 52.8201C51.8623 52.5328 51.9663 52.2544 52.1 51.9901L52 51.8701L52.08 51.8001L52.25 51.6601C52.3616 51.5507 52.4993 51.4716 52.65 51.4301L53.48 51.1501C55.32 50.6101 57.12 50.1501 58.95 49.7501C60.78 49.3501 62.61 48.8801 64.43 48.5101C68.43 47.6801 72.43 46.9301 76.49 46.1801L83.91 44.8201C87.66 44.1201 91.43 43.4501 95.12 42.6601C97.99 42.0501 100.78 41.3101 103.58 40.6001L105.42 40.1001C107.73 39.5401 108.42 39.4301 109.11 39.8301C109.264 39.8984 109.408 39.9857 109.54 40.0901C109.88 40.4201 109.04 41.0201 107.35 41.6201C102.19 43.2736 96.9334 44.6095 91.61 45.6201C87.61 46.4301 83.61 47.1901 79.54 47.9501L79.56 47.8501Z" fill="#231F20"/>
<path d="M60.94 32.7901L71.22 31.0901C72.47 30.8901 73.71 30.6301 74.96 30.4401C77.18 30.1101 79.4 29.8101 81.64 29.5601C82.76 29.4601 83.88 29.3501 85.04 29.3301H85.92H86.48C86.6894 29.3546 86.8966 29.3948 87.1 29.4501C87.63 29.4001 87.65 29.9501 87.81 30.3201C87.87 30.5101 87.98 30.7401 88.01 30.8901L88.11 31.3201C88.5085 33.2943 88.6863 35.3066 88.64 37.3201C88.64 39.8701 88.52 42.3801 88.51 44.8601C88.51 45.6401 88.21 45.5701 87.85 44.9301C87.338 43.9091 87.0483 42.7912 87 41.6501C86.91 39.0401 86.89 36.4901 86.66 34.0501C86.6 33.4501 86.5 32.8501 86.39 32.2701C86.33 31.9801 86.25 31.6901 86.18 31.4101C86.18 31.3401 86.18 31.3301 86.18 31.2801H85.18C84.57 31.2801 83.94 31.3401 83.3 31.3901C80.3 31.6201 77.09 32.2801 73.97 32.8201L63.67 34.6701L57.32 35.8201C54.12 36.4101 50.89 36.9601 47.72 37.5701C45.24 38.0401 42.85 38.6501 40.39 39.1001C39.85 39.2101 39.32 39.3201 38.77 39.4001C38.0496 39.5445 37.3134 39.5949 36.58 39.5501C36.2004 39.506 35.8475 39.333 35.58 39.0601C35.4551 38.9622 35.3441 38.8478 35.25 38.7201C35.02 38.3501 35.79 37.8501 37.25 37.4901C41.53 36.4301 46.1 35.5401 50.71 34.6701C54 34.0001 57.48 33.3301 60.92 32.7301L60.94 32.7901Z" fill="#231F20"/>
<path d="M34 52.3401L33.9 55.6701C33.9 56.0801 33.9 56.4801 33.9 56.8901L33.72 61.1801C33.72 61.8201 33.72 62.4601 33.72 63.0901C33.8126 63.9187 33.7653 64.7571 33.58 65.5701C33.51 65.8401 33.15 65.7401 32.8 65.4901C32.6121 65.3748 32.4526 65.2189 32.3331 65.0336C32.2137 64.8484 32.1374 64.6387 32.11 64.4201C32.0456 62.7864 32.0757 61.1503 32.2 59.5201C32.2535 58.5208 32.2535 57.5194 32.2 56.5201V53.1601V51.0901C32.2 50.0901 32.2 48.9901 32.2 47.9501C32.2 47.1401 32.06 46.3501 32.07 45.5401C32.07 45.3601 32.07 45.1801 32.07 45.0001C32.12 44.3301 32.26 44.1201 32.67 44.0001C32.77 44.0001 32.86 44.0001 32.96 43.9401C33.27 43.9401 33.51 44.2001 33.6 44.6601C33.7363 45.3712 33.8365 46.0888 33.9 46.8101C33.9 47.5401 33.97 48.2801 33.98 49.0201C33.98 50.1301 33.98 51.2501 33.98 52.3601L34 52.3401Z" fill="#231F20"/>
<path d="M25.88 44.25L25.76 48.73C25.76 49.27 25.76 49.81 25.76 50.36L25.55 56.12C25.55 56.97 25.55 57.83 25.55 58.68C25.6707 59.786 25.6371 60.9034 25.45 62C25.36 62.35 24.95 62.23 24.56 61.91C24.3381 61.7408 24.1541 61.5271 24.0198 61.2826C23.8855 61.038 23.8038 60.768 23.78 60.49C23.6954 58.2833 23.7255 56.0737 23.87 53.87C23.99 52.53 23.87 51.15 23.87 49.78V45.27V42.49C23.87 41.09 23.87 39.68 23.87 38.29C23.87 37.2 23.71 36.14 23.7 35.06C23.7 34.82 23.7 34.58 23.7 34.34C23.7 33.45 23.92 33.15 24.38 33.01C24.4831 32.9662 24.5903 32.9327 24.7 32.91C25.05 32.91 25.32 33.25 25.41 33.91C25.55 34.85 25.72 35.81 25.77 36.8C25.82 37.79 25.86 38.8 25.88 39.8C25.88 41.29 25.88 42.8 25.88 44.3V44.25Z" fill="#231F20"/>
<path d="M53.15 26.46L46.36 27.59L43.9 28.08L35.16 29.59C33.87 29.82 32.58 30.1 31.31 30.39C29.6908 30.8184 28.048 31.1523 26.39 31.39C25.39 31.51 26.39 29.93 28.24 29.47C31.55 28.67 34.89 27.95 38.29 27.42C40.29 27.12 42.41 26.59 44.48 26.19L51.31 24.91L55.52 24.15C57.65 23.77 59.79 23.43 61.89 23.01C63.53 22.69 65.11 22.26 66.73 21.9C67.08 21.82 67.43 21.72 67.79 21.65C69.12 21.4 69.57 21.47 69.94 21.97C70.0331 22.0794 70.1168 22.1965 70.19 22.32C70.38 22.73 69.89 23.16 68.94 23.44C65.9963 24.2307 63.0119 24.8616 60 25.33L53.16 26.51L53.15 26.46Z" fill="#231F20"/>
<path d="M58.74 19.1301L61.33 18.7301C61.65 18.6801 61.95 18.5901 62.27 18.5501L65.59 18.1701C66.09 18.1101 66.59 18.0101 67.06 17.9401C67.6953 17.7915 68.3495 17.7409 69 17.7901C69.22 17.7901 69.17 18.0701 69 18.3301C68.8421 18.6284 68.578 18.8567 68.26 18.9701C67.0384 19.3085 65.7851 19.5196 64.52 19.6001C63.7438 19.6959 62.9752 19.8463 62.22 20.0501L59.69 20.5701C59.17 20.6801 58.69 20.8001 58.16 20.9401L57.45 21.1501C57.366 21.1728 57.2853 21.2064 57.21 21.2501C57.13 21.3101 57.21 21.4101 57.15 21.4901V21.9301C57.1887 22.5481 57.2689 23.1628 57.39 23.7701C57.4221 23.895 57.4455 24.0219 57.46 24.1501C57.46 24.3901 57.46 24.5301 57.34 24.6401C57.1773 24.7465 57.0028 24.8337 56.82 24.9001L56.56 25.0301C56.4895 25.0686 56.4104 25.0887 56.33 25.0887C56.2497 25.0887 56.1706 25.0686 56.1 25.0301C55.92 24.9401 55.67 24.7801 55.63 24.5601C55.4302 24.0399 55.3285 23.4873 55.33 22.9301C55.33 22.6701 55.33 22.4001 55.33 22.1301V21.7401V21.4501C55.3198 21.3169 55.3198 21.1832 55.33 21.0501C55.3428 20.8748 55.3833 20.7026 55.45 20.5401C55.66 20.4401 55.59 20.1601 55.79 20.0701C55.9503 19.9407 56.1247 19.8299 56.31 19.7401C56.52 19.6701 56.72 19.5801 56.93 19.5301L57.31 19.4201C57.76 19.3001 58.2 19.2101 58.64 19.1201L58.74 19.1301Z" fill="#231F20"/>
<path d="M50.52 32.0001C49.67 32.0701 48.8 32.1801 47.93 32.3001C47.61 32.3001 47.3 32.4401 46.93 32.4901C45.81 32.6401 44.68 32.8001 43.56 33.0001C43.06 33.0901 42.56 33.2201 42.09 33.3301C41.465 33.5177 40.821 33.635 40.17 33.6801C39.96 33.6801 39.95 33.4301 40.06 33.1501C40.1209 32.986 40.2142 32.8358 40.3345 32.7087C40.4548 32.5815 40.5995 32.4799 40.76 32.4101C41.9948 31.9537 43.2812 31.6514 44.59 31.5101C45.39 31.4201 46.17 31.1501 46.97 30.9801C47.77 30.8101 48.73 30.6401 49.62 30.5001L50.45 30.3801C50.8141 30.3243 51.1817 30.2943 51.55 30.2901C51.7898 30.2629 52.0313 30.3232 52.23 30.4601C52.45 30.5701 52.46 30.8401 52.54 31.0701C52.67 31.8201 52.74 32.1701 52.84 32.6501C52.99 33.2801 53.23 33.8701 53.43 34.5001C53.4886 34.6349 53.5322 34.7757 53.56 34.9201C53.613 35.1228 53.5842 35.3383 53.48 35.5201C53.3313 35.6703 53.1447 35.7774 52.94 35.8301C52.85 35.8634 52.7557 35.8836 52.66 35.8901C52.5073 35.8942 52.356 35.8598 52.22 35.7901C52.06 35.7201 51.82 35.6201 51.76 35.4501C51.3284 34.3954 51.0717 33.2774 51 32.1401H50.54L50.52 32.0001Z" fill="#231F20"/>
<path d="M97.9 91.3201C95.9 91.7601 93.99 92.1501 92.03 92.5301C91.32 92.6601 90.62 92.8601 89.9 92.9801C88.64 93.2001 87.37 93.4001 86.1 93.5701C85.4334 93.6634 84.7934 93.7434 84.18 93.8101L83.18 93.8901H82.68C82.54 93.8901 82.22 93.8901 82.01 93.8901C81.8065 93.8829 81.6048 93.8492 81.41 93.7901C81.3604 93.7986 81.3097 93.7986 81.26 93.7901L81.17 93.6801L80.97 93.45C80.7327 93.1071 80.5505 92.7293 80.43 92.3301C80.2593 91.7279 80.1686 91.1059 80.16 90.4801C80.1345 89.7395 80.1545 88.9981 80.22 88.2601C80.29 87.5501 80.41 86.8601 80.47 86.1801C80.47 85.7701 80.82 85.7501 81.2 86.1201C81.7001 86.6713 81.9965 87.377 82.04 88.1201C82.1 88.8701 82.04 89.5801 82.04 90.2401C82.0508 90.5521 82.0843 90.8629 82.14 91.1701C82.1583 91.309 82.1884 91.4462 82.23 91.5801C82.2246 91.6399 82.2246 91.7002 82.23 91.7601C82.23 91.7601 82.23 91.82 82.23 91.84H82.39H82.64C83.34 91.77 84.06 91.6901 84.79 91.6401C86.571 91.4078 88.3372 91.0739 90.08 90.6401C92.08 90.2401 93.97 89.8401 95.9 89.3901C97.09 89.1201 98.28 88.8301 99.45 88.5101C101.216 88.0667 102.942 87.478 104.61 86.7501L105.03 86.52L105.28 86.34C105.354 86.2895 105.412 86.2174 105.444 86.1333C105.476 86.0493 105.482 85.9574 105.46 85.8701C105.46 85.7601 105.41 85.2901 105.37 84.9701L105.25 83.9701C105.25 83.6801 105.13 83.4001 105.08 83.1201C104.93 82.0601 105.08 81.8401 105.55 81.3901L105.86 81.06C106.17 80.68 106.86 81.06 107.31 82.06C107.56 82.7193 107.721 83.4086 107.79 84.1101C107.79 84.4601 107.87 84.8001 107.89 85.1101C107.916 85.553 107.916 85.9971 107.89 86.4401C107.874 86.7566 107.789 87.0659 107.641 87.3459C107.492 87.6258 107.283 87.8697 107.03 88.0601C106.775 88.2649 106.504 88.4488 106.22 88.6101L105.68 88.88C105.03 89.1916 104.362 89.4654 103.68 89.7C101.68 90.37 99.74 90.84 97.79 91.34L97.9 91.3201Z" fill="#231F20"/>
<path d="M9.93001 80.1901C9.93001 80.1901 4.82001 78.6801 1.71001 81.1201C-1.04999 83.2801 10.19 94.5201 33.21 98.4601L10.42 84.6301L9.93001 80.1901Z" fill="#231F20"/>
<path d="M94.64 66.5401L84.57 68.8301L80.92 69.7301L68 72.7501C66.08 73.2101 64.17 73.7501 62.29 74.2101C59.86 74.8101 57.45 75.5001 54.98 75.9501C54.22 76.1001 54.29 75.9501 54.87 75.6501C55.17 75.4801 55.59 75.2401 56.1 74.9701C56.6798 74.6539 57.2894 74.396 57.92 74.2001C60.35 73.3901 62.8 72.6301 65.28 71.9801C67.76 71.3301 70.28 70.6701 72.76 70.1301C75.76 69.4601 78.86 68.5801 81.92 67.8101L92 65.34L98.24 63.8501C101.38 63.0901 104.55 62.3701 107.66 61.5901C110.08 60.9801 112.43 60.2901 114.82 59.6501C115.34 59.5001 115.82 59.3501 116.38 59.2201C117.081 59.0311 117.804 58.9336 118.53 58.9301C118.881 58.9307 119.226 59.0238 119.53 59.2001C119.652 59.2549 119.766 59.3255 119.87 59.4101C120.13 59.6501 119.38 60.1301 117.99 60.7001C113.79 62.0701 109.28 63.1701 104.74 64.2301L94.66 66.5801L94.64 66.5401Z" fill="#231F20"/>
<path d="M72.2 37.4801L73.82 37.2801C74.02 37.2801 74.21 37.2001 74.4 37.1801L76.49 36.9401C76.7957 36.9055 77.0994 36.8555 77.4 36.7901C77.7797 36.6759 78.1735 36.6154 78.57 36.6101C78.82 36.6101 78.66 37.4001 78.23 37.5401C77.4521 37.7712 76.6501 37.9121 75.84 37.9601C75.3483 38.0059 74.8605 38.0861 74.38 38.2001L72.76 38.4601L71.76 38.6201C71.2 38.7101 70.76 38.6901 70.23 38.7901C69.848 38.8689 69.4708 38.969 69.1 39.0901L68.85 39.1601C68.54 39.2301 68.43 39.1601 68.31 38.8901C68.31 38.8301 68.31 38.7701 68.24 38.7001C68.2104 38.5966 68.2207 38.4858 68.2688 38.3895C68.317 38.2932 68.3995 38.2185 68.5 38.1801C69.177 37.9009 69.8913 37.7223 70.62 37.6501C70.89 37.6501 71.22 37.6501 71.4 37.5801L72.19 37.4601L72.2 37.4801Z" fill="#231F20"/>
<path d="M68.8 43.4001L71.69 43.0001L72.69 42.8001L76.41 42.2001C76.96 42.1101 77.51 41.9801 78.05 41.8601C78.7357 41.6702 79.4342 41.5299 80.14 41.4401C80.59 41.4401 80.2 42.2501 79.41 42.4401C78.005 42.8301 76.575 43.1241 75.13 43.3201C74.26 43.4201 73.37 43.6601 72.49 43.8201L69.58 44.3301L67.78 44.6401C66.87 44.7901 65.96 44.9301 65.07 45.1101C64.37 45.2501 63.7 45.4501 63.02 45.6201L62.57 45.7301C62.01 45.8501 61.81 45.8101 61.64 45.5501C61.596 45.4913 61.559 45.4275 61.53 45.3601C61.43 45.1501 61.63 44.9301 62.04 44.7901C63.2793 44.3943 64.5461 44.0901 65.83 43.8801L68.74 43.3801L68.8 43.4001Z" fill="#231F20"/>
</mask>
<g mask="url(#mask0_7_957)">
<rect x="5" y="14" width="148" height="103" fill="black"/>
<rect x="-7" y="6" width="155" height="122" fill="white"/>
</g>
</svg>
