<svg width="100" height="100" viewBox="0 0 100 100" fill="none" xmlns="http://www.w3.org/2000/svg">
<g clip-path="url(#clip0_3_7)">
<path d="M60.1952 0.408691C58.1952 -2.59131 36.1952 11.9087 36.1952 11.9087C36.1952 11.9087 13.4893 14.618 7.19519 25.4087C0.22394 37.3602 12.6952 60.4087 12.6952 60.4087C12.6952 60.4087 -4.62364 106.354 1.19519 135.409C6.5885 162.339 10.0512 187.994 36.1952 196.409C57.6206 203.304 91.6952 180.869 91.6952 180.869C91.6952 180.869 95.4423 194.316 91.6952 201.409C86.7125 210.84 77.3604 212.564 66.6952 212.409C57.9202 212.281 54.4492 205.029 45.6952 204.409C34.9121 203.644 21.2391 201.793 19.1952 212.409C17.34 222.044 27.3869 226.586 36.1952 230.909C46.8879 236.156 55.1155 233.698 66.6952 230.909C80.7286 227.528 90.4041 224.225 98.6952 212.409C105.967 202.045 112.907 191.604 106.195 180.869C104.18 177.645 99.3896 173.909 99.3896 173.909C99.3896 173.909 109.195 173.909 109.195 142.909C109.195 111.909 66.1952 79.4087 66.1952 79.4087C62.8619 78.5754 66.1952 70.9087 66.1952 70.9087L70.1952 60.4087C70.1952 60.4087 97.6952 45.9087 98.6952 42.9087C99.6952 39.9087 75.1952 35.4087 75.1952 35.4087L60.1952 20.4087C60.1952 20.4087 62.1952 3.40869 60.1952 0.408691Z" fill="black" stroke="black"/>
<ellipse cx="26.0192" cy="26.4509" rx="9.5" ry="10.5" transform="rotate(-14.4828 26.0192 26.4509)" fill="#FFF172"/>
<ellipse cx="25.8997" cy="23.9149" rx="6.28445" ry="6.94597" transform="rotate(-26.184 25.8997 23.9149)" fill="black"/>
<ellipse cx="9.5" cy="10.5" rx="9.5" ry="10.5" transform="matrix(-0.132085 0.991238 0.991238 0.132085 44.866 40.6472)" fill="#FFF172"/>
<ellipse cx="54.5039" cy="49.3232" rx="5.85177" ry="7.12533" transform="rotate(-85.3127 54.5039 49.3232)" fill="black"/>
</g>
<defs>
<clipPath id="clip0_3_7">
<rect width="100" height="100" fill="white"/>
</clipPath>
</defs>
</svg>
