<svg width="128" height="128" viewBox="0 0 128 128" fill="none" xmlns="http://www.w3.org/2000/svg">
<mask id="mask0_7_48" style="mask-type:alpha" maskUnits="userSpaceOnUse" x="2" y="17" width="123" height="95">
<path d="M102 75.79L92.69 82.19C91.55 82.96 90.44 83.77 89.3 84.53C87.3 85.86 85.3 87.19 83.12 88.43C82.85 88.58 82.58 88.73 82.28 88.88C82.0936 88.9731 81.8995 89.05 81.7 89.11C81.5885 89.1541 81.4699 89.1778 81.35 89.18H81.24H81.19H81.01L80.34 89L79.86 88.79C79.5487 88.6352 79.251 88.4546 78.97 88.25C77.9149 87.4006 77.1154 86.2757 76.66 85C75.9319 82.892 75.593 80.6692 75.66 78.44C75.6636 77.032 75.7874 75.6269 76.03 74.24C76.2607 72.8191 76.7742 71.4589 77.54 70.24C77.82 69.84 78.1 69.76 78.18 69.88C78.26 70 78.27 70.3 78.27 70.69C78.2325 71.8552 78.1021 73.0155 77.88 74.16C77.3441 76.7396 77.2662 79.3934 77.65 82C77.8252 83.2426 78.2432 84.4387 78.88 85.52C79.167 86.0265 79.547 86.4743 80 86.84C80.2266 87.0076 80.4675 87.1548 80.72 87.28C80.8386 87.3411 80.9624 87.3913 81.09 87.43C81.1057 87.4372 81.1227 87.4409 81.14 87.4409C81.1573 87.4409 81.1743 87.4372 81.19 87.43C81.4757 87.3236 81.7503 87.1896 82.01 87.03C82.37 86.84 82.73 86.62 83.09 86.4C83.81 85.96 84.52 85.5 85.24 85.02L89.5 82.1C92.62 79.96 95.7267 77.8 98.82 75.62L104.51 71.62L108.79 68.5L110.88 66.91L111.38 66.5C111.5 66.39 111.6 66.35 111.65 66.22C111.672 66.0909 111.672 65.9591 111.65 65.83C111.65 65.64 111.65 65.43 111.65 65.22C111.181 62.5324 110.894 59.8162 110.79 57.09C110.789 56.4677 110.832 55.8461 110.92 55.23C111.005 54.3835 111.278 53.5668 111.72 52.84C111.92 52.4784 112.237 52.1961 112.62 52.04C112.744 51.9789 112.875 51.9319 113.01 51.9C113.38 51.9 113.08 52.74 112.92 54.23C112.648 56.5604 112.712 58.9178 113.11 61.23C113.27 62.45 113.46 63.65 113.6 65.01V65.54C113.614 65.7731 113.614 66.0069 113.6 66.24C113.588 66.5511 113.511 66.8563 113.373 67.1355C113.235 67.4147 113.04 67.6616 112.8 67.86L112.33 68.25L111.94 68.56L111.18 69.15C108.18 71.46 105.04 73.66 101.94 75.87L102 75.79Z" fill="#231F20"/>
<path d="M13.74 89.59C12.74 89.49 11.74 89.38 10.68 89.18L9.88 89C9.59 88.92 9.29 88.82 9 88.72C8.79985 88.6338 8.60603 88.5335 8.42 88.42L8.14 88.23L8 88.11L7.42 87.53C5.8597 85.9661 4.74175 84.0165 4.18 81.88C3.64638 79.783 3.5849 77.5937 4 75.47C4.40581 73.3826 5.18133 71.3846 6.29 69.57C7.11701 68.1974 8.18794 66.9875 9.45 66C9.62 65.88 9.75 65.76 10.01 65.6C10.2563 65.4745 10.5188 65.3836 10.79 65.33C11.19 65.23 11.56 65.17 11.94 65.11C12.6883 64.9921 13.443 64.9187 14.2 64.89C24.44 64.53 34.61 64.72 44.8 64.99C49.32 65.11 53.86 65.23 58.35 65.42C61.23 65.54 64.12 65.67 67.01 65.91C68.45 66.03 69.9 66.18 71.34 66.38C72.811 66.5798 74.2604 66.9145 75.67 67.38C76.0403 67.4962 76.3813 67.6906 76.67 67.95C76.86 68.15 76.9 68.32 76.82 68.35C76.74 68.38 76.19 68.25 75.44 68.24C73.94 68.17 71.18 68.24 67.91 67.94C62.1 67.47 56.23 67.29 50.36 67.11L32.66 66.7C29.12 66.62 25.51 66.64 21.88 66.7C20.07 66.7 18.25 66.79 16.44 66.86C14.6851 66.8763 12.935 67.0469 11.21 67.37C11.0755 67.3889 10.95 67.4482 10.85 67.54L10.33 67.93C9.97675 68.2214 9.64272 68.5354 9.33 68.87C8.71185 69.5668 8.17506 70.3317 7.73 71.15C6.83191 72.8022 6.24549 74.6056 6 76.47C5.69659 78.3185 5.83016 80.2124 6.39 82C6.96056 83.7655 7.997 85.3444 9.39 86.57C9.45157 86.6423 9.53081 86.6974 9.62 86.73L9.73 86.79L9.91 86.85C10.1676 86.9401 10.4317 87.0104 10.7 87.06C11.26 87.19 11.86 87.25 12.45 87.34C13.64 87.48 14.85 87.58 16.07 87.66C18.5 87.81 20.95 87.89 23.4 87.95C30.81 88.12 38.28 88.15 45.66 88.13C51.39 88.13 57.02 87.97 62.66 88.02C63.92 88.02 65.14 88.02 66.41 88.07C71.1 88.25 72.63 88.64 73.54 89.35C73.7514 89.4945 73.9459 89.6622 74.12 89.85C74.45 90.37 72.62 90.31 69.24 90.24C64.24 90.13 59.02 90.24 53.75 90.24L37.75 90.31C33.75 90.31 29.75 90.31 25.75 90.22C21.75 90.13 17.75 90.04 13.67 89.69L13.74 89.59Z" fill="#231F20"/>
<path d="M34.44 51L29 54.54C28.33 54.97 27.69 55.44 27 55.86L19.84 60.22L16.68 62.22C15.367 63.1416 13.9336 63.8785 12.42 64.41C11.94 64.57 11.87 64.22 12.09 63.72C12.4195 63.0483 12.9283 62.4808 13.56 62.08C16.27 60.48 18.97 58.78 21.78 57.16C23.47 56.16 25.12 55.01 26.78 53.93L32.24 50.33L35.59 48.09L40.66 44.67C41.95 43.78 43.18 42.83 44.45 41.92C44.73 41.72 45.01 41.54 45.31 41.36C46.41 40.7 46.84 40.62 47.31 40.82C47.4135 40.8586 47.5139 40.9055 47.61 40.96C47.86 41.14 47.61 41.66 46.85 42.27C45.7759 43.1955 44.6508 44.0602 43.48 44.86L39.91 47.34L34.46 51H34.44Z" fill="#231F20"/>
<path d="M108.73 48C106.937 46.5183 104.814 45.4894 102.54 45C100.156 44.4427 97.7257 44.108 95.28 44C93.47 44 91.65 44 89.83 44C86.61 44 83.38 44.12 80.14 44.27C76.9 44.42 73.66 44.62 70.36 44.56C67.4467 44.475 64.5461 44.1404 61.69 43.56C58.0271 42.9309 54.4675 41.8038 51.11 40.21C50.11 39.69 50.29 39.61 51.26 39.77L53.26 40.12C54.1963 40.264 55.1243 40.4576 56.04 40.7C59.6096 41.6088 63.249 42.2176 66.92 42.52C70.6154 42.78 74.3246 42.78 78.02 42.52C82.53 42.35 87.24 41.88 91.92 41.89C94.5016 41.8742 97.0811 42.0379 99.64 42.38C102.259 42.6932 104.816 43.4047 107.22 44.49C107.59 44.68 107.95 44.89 108.31 45.08C108.67 45.27 109.01 45.54 109.31 45.78C109.61 46.02 109.98 46.3 110.31 46.6L110.75 47.05C110.94 47.2377 111.105 47.4495 111.24 47.68L111.7 48.38C111.769 48.4967 111.805 48.6296 111.805 48.765C111.805 48.9004 111.769 49.0333 111.7 49.15C111.437 49.6468 111.068 50.0801 110.62 50.42C109.99 50.96 109.34 51.42 108.69 51.88C104.69 54.57 100.57 56.88 96.55 59.34C93.41 61.22 90.39 63.16 87.36 65.11L85.36 66.41C82.88 68.02 82.07 68.41 81.26 68.34C81.07 68.34 80.86 68.34 80.7 68.34C80.54 68.34 80.44 67.96 80.8 67.45C81.3258 66.7569 81.9528 66.1467 82.66 65.64C88 61.82 93.91 58.47 99.75 54.94C101.92 53.63 104.09 52.33 106.18 50.94C107.216 50.2858 108.217 49.5781 109.18 48.82L109.31 48.71L108.76 48.15L108.73 48Z" fill="#231F20"/>
<path d="M23 108.77C28 108.68 33 108.54 38 108.38L43.48 108.14C49.92 107.94 56.3633 107.787 62.81 107.68L71.4 107.48C73.22 107.48 75.06 107.41 76.89 107.48C78.7535 107.506 80.6096 107.721 82.43 108.12C83.64 108.62 83.25 108.76 82.29 108.89C80.711 109.199 79.1086 109.373 77.5 109.41L55.2 109.71C50.72 109.71 46.06 110.02 41.47 110.18C36.4233 110.36 31.3733 110.513 26.32 110.64C23.2067 110.72 20.0933 110.767 16.98 110.78C14.5927 110.828 12.2048 110.728 9.83 110.48L9.37 110.41L8.86 110.26C8.55674 110.145 8.26537 110.001 7.99 109.83C7.70751 109.688 7.43667 109.524 7.18 109.34L6.45 108.75C5.98971 108.326 5.55872 107.872 5.16 107.39C4.79981 106.884 4.46603 106.36 4.16 105.82C3.27856 104.151 2.71242 102.334 2.49 100.46C2.24663 98.6026 2.27358 96.7197 2.57 94.87C2.70403 94.047 2.89788 93.2348 3.15 92.44C3.48875 91.3701 4.02463 90.3729 4.73 89.5C5.0409 89.0631 5.50512 88.7596 6.03 88.65C6.20502 88.5954 6.38672 88.5651 6.57 88.56C6.81 88.56 6.81 88.9 6.57 89.39L5.64 91.5C4.49817 94.3536 4.10905 97.4527 4.51 100.5C4.86 103.5 6.22 106.57 8.64 108.04L9.33 108.42C9.44 108.48 9.5 108.42 9.58 108.5H9.7H9.91C10.43 108.59 11.04 108.62 11.64 108.67C12.86 108.73 14.11 108.76 15.36 108.77C17.87 108.77 20.36 108.77 22.91 108.68L23 108.77Z" fill="#231F20"/>
<path d="M83.69 101.55C83.5 100.75 83.35 99.92 83.24 99.1C83.24 98.8 83.11 98.51 83.09 98.21C83.0099 97.1482 83.0099 96.0818 83.09 95.02C83.15 94.56 83.16 94.09 83.21 93.63C83.2126 93.0338 83.328 92.4434 83.55 91.89C83.69 91.55 84.74 92.23 84.74 92.89C84.7364 94.0068 84.663 95.1224 84.52 96.23C84.4988 96.9219 84.5626 97.6137 84.71 98.29C84.83 99.05 84.97 99.8 85.16 100.55C85.28 101.02 85.41 101.48 85.56 101.93C85.7792 102.613 86.0431 103.281 86.35 103.93C86.6 104.44 86.97 104.93 87.25 105.38C87.31 105.49 87.39 105.59 87.45 105.7C87.66 106.12 87.55 106.34 87.19 106.6L86.94 106.79C86.794 106.871 86.6258 106.903 86.4602 106.882C86.2946 106.86 86.1403 106.786 86.02 106.67C85.272 105.886 84.7053 104.947 84.36 103.92C84.07 103.15 83.82 102.36 83.6 101.56L83.69 101.55Z" fill="#231F20"/>
<path d="M109.67 90.33C108.1 91.66 106.47 92.9 104.88 94.18C104.3 94.64 103.76 95.18 103.17 95.61C101.11 97.23 99.03 98.83 97.02 100.49C96.12 101.23 95.25 102 94.43 102.8C93.9 103.31 93.43 103.8 92.88 104.36C92.33 104.92 91.93 105.36 91.43 105.84C91.28 106 90.79 106 90.61 105.35C90.541 104.96 90.5619 104.558 90.671 104.177C90.7802 103.796 90.9748 103.445 91.24 103.15C93.3497 100.882 95.6965 98.8474 98.24 97.08C99.73 96.01 101.12 94.71 102.58 93.53L107.37 89.66C108.37 88.87 109.37 88.08 110.29 87.26C111 86.64 111.74 86.01 112.34 85.37C112.46 85.23 112.54 85.15 112.55 85.01V84.43C112.55 83.97 112.55 83.51 112.45 83.04C112.28 81.61 111.89 80.17 111.8 78.65C111.8 78.32 111.8 78 111.8 77.65C111.88 76.41 112.07 76.03 112.45 75.8C112.533 75.7447 112.62 75.6946 112.71 75.65C112.99 75.56 113.18 76.06 113.32 76.92C113.52 78.2 113.69 79.44 113.94 80.74C114.06 81.4 114.19 82.08 114.29 82.74C114.337 83.1 114.377 83.46 114.41 83.82V84.38C114.41 84.58 114.41 84.67 114.41 85.09C114.359 85.5897 114.16 86.063 113.84 86.45C113.61 86.72 113.43 86.91 113.24 87.11C112.85 87.51 112.46 87.87 112.08 88.23C111.3 88.94 110.52 89.63 109.74 90.31L109.67 90.33Z" fill="#231F20"/>
<path d="M25.59 77.8C21.69 82.33 23.82 97 23.82 97C19.74 98 16.42 93.63 16.42 93.63C14.29 85.52 17.62 77.78 17.62 77.78L25.59 77.8Z" fill="#231F20"/>
<path d="M113 81C141.93 84.56 111.09 99.95 93.53 102.72L113.09 86.31L113 81Z" fill="#231F20"/>
<path d="M6.61999 79.06C6.46481 78.0224 6.46481 76.9675 6.61999 75.93C6.65103 75.5512 6.718 75.1761 6.81999 74.81C7.1792 73.5364 7.78762 72.3467 8.60999 71.31C8.95999 70.86 9.29999 70.39 9.68999 69.98C10.155 69.4007 10.7379 68.9269 11.4 68.59C11.62 68.49 11.73 68.75 11.73 69.09C11.7427 69.2717 11.7182 69.4541 11.658 69.626C11.5978 69.798 11.5032 69.9558 11.38 70.09C10.4606 71.0128 9.66101 72.0476 8.99999 73.17C8.58097 73.8821 8.29625 74.6651 8.15999 75.48C7.9715 76.3736 7.91757 77.2904 7.99999 78.2C8.04646 78.7649 8.14691 79.3242 8.29999 79.87L8.73999 81.09C8.92999 81.48 9.13999 81.86 9.35999 82.24C9.75118 82.784 10.1932 83.2896 10.68 83.75C10.79 83.85 10.91 83.93 11.01 84.04C11.39 84.43 11.44 84.62 11.25 84.98C11.2 85.06 11.17 85.15 11.12 85.22C10.94 85.47 10.61 85.47 10.26 85.22C9.70451 84.8351 9.20913 84.3701 8.78999 83.84C8.54912 83.5744 8.32534 83.2939 8.11999 83L7.58999 82.08C7.11194 81.1342 6.77502 80.1235 6.58999 79.08L6.61999 79.06Z" fill="#231F20"/>
<path d="M7.66 98.42C7.66698 99.2322 7.76765 100.041 7.96 100.83C8.03711 101.12 8.134 101.404 8.25 101.68C8.5607 102.695 9.03713 103.651 9.66 104.51C9.94312 104.89 10.28 105.227 10.66 105.51C10.9142 105.663 11.1551 105.837 11.38 106.03C11.6401 106.185 11.8816 106.37 12.1 106.58C12.22 106.77 12.1 106.92 11.87 107.09C11.7065 107.193 11.5232 107.26 11.332 107.288C11.1408 107.315 10.9459 107.303 10.76 107.25C10.0814 106.948 9.47975 106.497 9 105.93C8.51242 105.409 8.11378 104.811 7.82 104.16C7.43231 103.408 7.09815 102.629 6.82 101.83C6.66 101.39 6.59 100.93 6.47 100.48C6.35 100.03 6.33 99.57 6.3 99.11C6.26001 98.5407 6.26001 97.9693 6.3 97.4C6.36951 96.5443 6.52019 95.6972 6.75 94.87C6.91079 94.2312 7.12144 93.6059 7.38 93C7.42697 92.8563 7.49075 92.7187 7.57 92.59C7.92 92.13 8.12 92.06 8.48 92.23C8.56289 92.2639 8.64312 92.3041 8.72 92.35C8.84217 92.4432 8.928 92.5761 8.96268 92.7258C8.99737 92.8755 8.97874 93.0326 8.91 93.17C8.4967 94.1072 8.16221 95.0772 7.91 96.07C7.75999 96.854 7.69961 97.6524 7.73 98.45L7.66 98.42Z" fill="#231F20"/>
<path d="M33.27 78.43H28.63C28.06 78.43 27.5 78.43 26.93 78.43C24.93 78.43 22.93 78.32 20.93 78.25L18.26 78.18C17.0875 78.2191 15.9196 78.0148 14.83 77.58C14.47 77.37 14.66 77.25 14.99 77.16C15.4707 77.014 15.968 76.93 16.47 76.91C18.68 76.91 20.97 76.91 23.28 77.02C24.66 77.08 26.09 76.93 27.51 76.9L32.18 76.82H35.06L39.42 76.76C40.55 76.76 41.65 76.63 42.78 76.61C43.03 76.61 43.27 76.61 43.52 76.61C44.45 76.68 44.75 76.85 44.9 77.24C44.9389 77.3268 44.9691 77.4172 44.99 77.51C44.99 77.8 44.65 77.97 43.99 78.05C42.06 78.29 39.99 78.38 37.92 78.44H33.25L33.27 78.43Z" fill="#231F20"/>
<path d="M47.54 100.84H43.3C42.79 100.84 42.3 100.84 41.76 100.84L36.29 100.69C35.48 100.69 34.67 100.69 33.87 100.69C32.8279 100.733 31.7844 100.656 30.76 100.46C30.44 100.4 30.5 100.22 30.76 100.02C31.171 99.7496 31.6407 99.5816 32.13 99.53C33.13 99.4 34.21 99.44 35.25 99.41C36.29 99.38 37.35 99.41 38.4 99.41C39.67 99.41 40.98 99.31 42.27 99.29L46.54 99.22H49.17H53.17C54.17 99.22 55.17 99.1 56.24 99.09C56.47 99.09 56.69 99.09 56.92 99.09C57.77 99.17 58.04 99.34 58.17 99.72C58.2071 99.8031 58.234 99.8904 58.25 99.98C58.25 100.26 57.92 100.47 57.33 100.53C55.4918 100.757 53.6422 100.881 51.79 100.9H47.54V100.84Z" fill="#231F20"/>
<path d="M73.55 57.15C71.9 57.05 70.25 56.95 68.61 56.92C66.97 56.89 65.25 56.72 63.61 56.56C61.97 56.4 60.32 56.23 58.69 56.16C57.88 56.16 57.07 56.16 56.26 56.16C55.86 56.16 55.46 56.16 55.07 56.26H54.77H54.56H54.35L54.12 56.32C54.03 56.32 54.12 56.45 54.12 56.48C54.1817 56.52 54.2491 56.5504 54.32 56.57C54.4771 56.6208 54.6375 56.6609 54.8 56.69C55.93 56.94 57.13 57.09 58.31 57.23C64.36 57.95 70.5 58.1 76.61 59.31H76.85L76.97 59.5C77.0378 59.5987 77.0822 59.7116 77.1 59.83C77.1154 59.9805 77.0802 60.1318 77 60.26C76.9518 60.3335 76.8947 60.4006 76.83 60.46L76.7 60.54C76.5862 60.5989 76.4652 60.6427 76.34 60.67C76.1723 60.712 76.0019 60.742 75.83 60.76C75.5 60.76 75.19 60.82 74.89 60.83C74.27 60.83 73.67 60.83 73.06 60.83C71.85 60.83 70.65 60.83 69.45 60.78L58.11 60.48C53.29 60.38 48.45 60.42 43.66 60.2C42.18 60.14 42.37 59.42 43.66 58.79C45.6954 57.9597 47.9021 57.6371 50.09 57.85L63.38 58.75L70.01 59.18C71.11 59.18 72.22 59.29 73.32 59.31C73.86 59.31 74.41 59.31 74.95 59.31H75.71H76.02L76.08 59.45C76.0995 59.524 76.1298 59.5948 76.17 59.66C76.28 59.81 76.29 59.87 76.37 59.9C76.3591 59.8947 76.3471 59.8919 76.335 59.8919C76.3229 59.8919 76.3109 59.8947 76.3 59.9V60.6C75.38 60.37 74.42 60.18 73.46 60.01C70.56 59.51 67.55 59.23 64.52 58.94C61.49 58.65 58.43 58.43 55.39 57.88C54.95 57.79 54.6 57.73 54.07 57.58C53.5134 57.505 52.9804 57.3068 52.51 57C52.3302 56.8359 52.2164 56.6119 52.19 56.37C52.1752 56.2456 52.1997 56.1198 52.26 56.01L52.54 55.84C52.7295 55.7062 52.9343 55.5954 53.15 55.51L54.08 55.31C54.3276 55.2563 54.578 55.2162 54.83 55.19L55.47 55.12C55.9 55.12 56.33 55.05 56.75 55.06C57.61 55.06 58.45 55.06 59.29 55.06C62.67 55.25 65.95 55.81 69.29 55.81C73.41 55.92 77.52 56.33 81.59 56.35C81.94 56.35 82.29 56.35 82.59 56.35C82.7545 56.3411 82.9182 56.321 83.08 56.29H83.25L83.34 56.39C83.3294 56.3839 83.3173 56.3806 83.305 56.3806C83.2927 56.3806 83.2806 56.3839 83.27 56.39L83.43 55.91H83.6C83.6156 55.9681 83.6356 56.025 83.66 56.08C83.66 56.16 83.66 56.18 83.66 56.22C83.6196 56.2455 83.5855 56.2796 83.56 56.32C83.56 56.32 83.47 56.46 83.45 56.5L83 56.37L82 56.13L80 55.71L76.08 55L72.08 54.14L70.08 53.67L69.08 53.42L68.58 53.28L67.91 53.09C67.316 52.9326 66.7396 52.7148 66.19 52.44C65.7891 52.2567 65.444 51.9703 65.19 51.61C65.1288 51.4947 65.1055 51.3631 65.1234 51.2338C65.1414 51.1045 65.1997 50.9842 65.29 50.89C65.4563 50.7409 65.6498 50.6255 65.86 50.55C66.3979 50.3479 66.9656 50.2364 67.54 50.22H68.54H69.4H70.85C72.79 50.28 74.7 50.4 76.62 50.52L79.74 50.7C83.63 50.95 84.81 51.07 85.63 51.7C85.8298 51.817 86.0145 51.958 86.18 52.12C86.59 52.6 84.91 53.04 82.03 52.85C79.15 52.66 76.43 52.41 73.6 52.15C72.19 52.02 70.76 51.9 69.35 51.83H68.92H68.77H68.83L69.15 51.92L70.25 52.23C71.73 52.62 73.25 52.98 74.75 53.32L79.59 54.37L82 55L83.24 55.29C83.45 55.35 83.65 55.4 83.9 55.49L84.12 55.57H84.21H84.26L84.36 55.64C84.4117 55.6851 84.4586 55.7353 84.5 55.79C84.5 55.85 84.57 55.79 84.66 56.14C84.6816 56.2567 84.6785 56.3765 84.6509 56.4919C84.6233 56.6073 84.5719 56.7157 84.5 56.81C84.4432 56.8801 84.3757 56.9409 84.3 56.99C84.1448 57.0904 83.9648 57.1458 83.78 57.15H83.57L84.25 56C84.3448 56.1848 84.3798 56.3945 84.35 56.6C84.3131 56.7881 84.2228 56.9617 84.09 57.1C84.0231 57.1688 83.9454 57.2263 83.86 57.27L83.67 57.36C83.5201 57.41 83.3662 57.4468 83.21 57.47C82.9748 57.5067 82.7378 57.5301 82.5 57.54C82.05 57.54 81.62 57.54 81.18 57.54C80.32 57.54 79.47 57.49 78.62 57.45L73.55 57.16V57.15Z" fill="#231F20"/>
<path d="M97 70.44L99.19 69.07C99.45 68.9 99.7 68.7 99.96 68.54L102.8 66.8C103.21 66.54 103.61 66.24 104 65.95C104.477 65.5416 104.996 65.1862 105.55 64.89C105.92 64.73 106.15 65.89 105.55 66.32C104.529 67.1046 103.449 67.81 102.32 68.43C101.64 68.8 101.01 69.3 100.32 69.74L98.14 71.16L96.89 72C96.21 72.45 95.53 72.89 94.89 73.37C94.39 73.74 93.94 74.16 93.46 74.56L93.15 74.83C92.75 75.13 92.57 75.16 92.29 74.94C92.23 74.94 92.16 74.85 92.11 74.8C92.06 74.75 91.98 74.32 92.24 74.04C93.0364 73.2088 93.9217 72.4677 94.88 71.83C95.59 71.33 96.32 70.83 97.04 70.38L97 70.44Z" fill="#231F20"/>
<path d="M101.51 84.07C102.08 83.77 102.64 83.43 103.18 83.07C103.38 82.94 103.56 82.77 103.75 82.65C104.46 82.18 105.15 81.65 105.83 81.18C106.127 80.9529 106.411 80.7092 106.68 80.45C107.01 80.0969 107.375 79.7786 107.77 79.5C108.03 79.34 108.33 80.2 107.98 80.64C107.34 81.4101 106.592 82.0838 105.76 82.64C105.25 82.96 104.76 83.41 104.32 83.78C103.88 84.15 103.21 84.57 102.64 84.94C102.28 85.16 101.93 85.38 101.56 85.59C101.02 85.92 100.43 86.19 99.86 86.47C99.29 86.75 99.01 86.97 98.55 87.16C98.4506 87.207 98.3468 87.2439 98.24 87.27C97.83 87.35 97.68 87.27 97.53 87.04L97.43 86.87C97.35 86.67 97.43 86.45 97.68 86.27C97.93 86.09 98.02 86 98.19 85.86L98.72 85.55L99.81 85C100.36 84.69 100.94 84.43 101.49 84.09L101.51 84.07Z" fill="#231F20"/>
<path d="M47.47 91.34L38.33 91.18H34.99C31.07 91.09 27.16 90.99 23.24 90.82L18 90.62C15.77 90.5967 13.5458 90.3893 11.35 90C10.66 89.86 10.81 89.6 11.43 89.41C12.4077 89.1521 13.4219 89.0608 14.43 89.14C18.9 89.4 23.43 89.44 27.97 89.65C30.69 89.79 33.53 89.73 36.32 89.76L45.53 89.86L51.19 89.93L59.77 90.06C61.98 90.06 64.15 90.06 66.34 90.06H67.78C69.59 90.15 70.15 90.3 70.51 90.7C70.5983 90.7831 70.6756 90.8772 70.74 90.98C70.89 91.28 70.14 91.48 68.83 91.48C64.95 91.48 60.83 91.48 56.73 91.48L47.52 91.37L47.47 91.34Z" fill="#231F20"/>
<path d="M102.15 76.85L97.88 79.75L96.35 80.83L90.81 84.49C89.99 85.02 89.18 85.59 88.39 86.16C87.3863 86.913 86.3377 87.6043 85.25 88.23C84.56 88.6 84.82 87.23 85.98 86.36C88.06 84.9 90.15 83.44 92.34 82.09C93.65 81.28 94.92 80.31 96.21 79.41L100.47 76.41L103.08 74.57C104.39 73.63 105.72 72.7 106.99 71.73C107.99 70.97 108.9 70.17 109.84 69.39C110.05 69.21 110.24 69.03 110.46 68.87C111.25 68.24 111.6 68.21 111.92 68.26C112 68.26 112.1 68.26 112.17 68.26C112.42 68.26 112.17 68.81 111.71 69.39C110.077 71.0065 108.307 72.4786 106.42 73.79C105.02 74.79 103.59 75.79 102.17 76.79L102.15 76.85Z" fill="#231F20"/>
<path d="M37 109.46C40.42 109.46 43.84 109.34 47.26 109.25L51 109.1C55.4 108.98 59.81 108.91 64.22 108.86L70.09 108.74H71.97H73.85C75.1092 108.774 76.3651 108.887 77.61 109.08C78.38 109.26 78.25 109.45 77.61 109.75C76.5534 110.146 75.438 110.362 74.31 110.39C71.79 110.5 69.26 110.46 66.72 110.51C64.18 110.56 61.63 110.51 59.07 110.51C56 110.51 52.81 110.69 49.68 110.8L39.32 111.06L32.94 111.15C29.72 111.15 26.48 111.15 23.28 111.15C20.79 111.15 18.34 111.15 15.86 111L14.22 110.89C13.4874 110.833 12.7667 110.672 12.08 110.41C11.7277 110.303 11.4259 110.072 11.23 109.76C11.1453 109.649 11.0748 109.528 11.02 109.4C10.93 109.02 11.8 108.89 13.22 109.03C17.48 109.35 22.08 109.47 26.69 109.51C30.12 109.51 33.58 109.51 37.03 109.4L37 109.46Z" fill="#231F20"/>
<path d="M63.29 23.49C63.17 23.38 63.29 23.21 63.53 23.02C63.6489 22.9408 63.7873 22.8959 63.93 22.89C64.0278 22.9352 64.1214 22.9887 64.21 23.05C64.26 23.05 64.66 23.76 64.82 23.97C64.9633 24.18 65.0839 24.4046 65.18 24.64C65.4 25.11 65.63 25.56 65.87 26.02C65.917 26.1228 65.9539 26.23 65.98 26.34C66.0785 26.7226 66.2371 27.0871 66.45 27.42C66.45 27.48 66.51 27.55 66.58 27.58C66.8522 27.9273 67.0744 28.311 67.24 28.72C67.33 29.06 67.37 29.44 67.46 29.79C67.46 29.84 67.51 29.88 67.46 29.95C67.4343 30.003 67.421 30.0611 67.421 30.12C67.421 30.1789 67.4343 30.237 67.46 30.29C67.46 30.43 67.56 30.58 67.6 30.73C67.6098 30.8164 67.6098 30.9036 67.6 30.99C67.6 31.07 67.45 31.11 67.42 31.1C67.39 31.09 67.31 31.1 67.26 31.18C66.9675 30.988 66.69 30.7741 66.43 30.54L66 30.05C65.8313 29.8562 65.6744 29.6525 65.53 29.44C65.4873 29.3735 65.4599 29.2984 65.45 29.22L64.84 28.3C64.7132 28.1209 64.6404 27.9092 64.63 27.69C64.6397 27.6506 64.6397 27.6094 64.63 27.57C64.4635 27.2497 64.3263 26.915 64.22 26.57C64.16 26.39 64.07 26.23 63.99 26.05C63.9851 26.0168 63.9851 25.9831 63.99 25.95C63.9946 25.9068 63.9946 25.8632 63.99 25.82C63.81 25.42 63.7 24.98 63.5 24.58C63.5 24.49 63.41 23.98 63.36 23.88C63.31 23.78 63.34 23.53 63.29 23.49Z" fill="#231F20"/>
<path d="M93.35 31.93C93.25 32.1 93.02 32.06 92.73 31.88C92.63 31.83 92.46 31.57 92.48 31.5C92.5094 31.3767 92.5496 31.2563 92.6 31.14C92.6 31.07 93.38 30.35 93.6 30.09C93.8412 29.8517 94.1021 29.6342 94.38 29.44L96.06 28.22C96.184 28.1282 96.3182 28.051 96.46 27.99C96.9465 27.7758 97.4035 27.5002 97.82 27.17C97.9001 27.1268 97.9686 27.0651 98.02 26.99C98.4807 26.5944 98.9919 26.2615 99.54 26C99.99 25.84 100.46 25.73 100.91 25.58C100.98 25.58 101.03 25.52 101.11 25.58C101.262 25.608 101.418 25.5796 101.55 25.5C101.735 25.4232 101.926 25.3597 102.12 25.31C102.226 25.2948 102.334 25.2948 102.44 25.31C102.54 25.31 102.56 25.47 102.54 25.49C102.52 25.51 102.54 25.61 102.62 25.66V25.72C102.62 25.72 102.41 25.94 102.2 26.16C101.99 26.38 101.76 26.62 101.71 26.66L101.03 27.19C100.7 27.49 100.33 27.73 100.26 27.8C100.179 27.8577 100.087 27.8986 99.99 27.92C99.99 27.92 98.93 28.75 98.89 28.77C98.6715 28.935 98.4239 29.0571 98.16 29.13C98.1058 29.1429 98.0547 29.1667 98.01 29.2C97.6265 29.4611 97.2292 29.7014 96.82 29.92C96.61 30.04 96.43 30.19 96.23 30.32L96.11 30.37C96.0574 30.3872 96.007 30.4107 95.96 30.44C95.5 30.77 94.96 31.04 94.57 31.44C94.47 31.52 93.88 31.76 93.77 31.86C93.66 31.96 93.39 31.85 93.35 31.93Z" fill="#231F20"/>
<path d="M82.64 24.36C82.64 24.52 82.44 24.52 82.11 24.42C81.9602 24.3626 81.8265 24.27 81.72 24.15C81.6804 24.047 81.6536 23.9395 81.64 23.83C81.64 23.77 81.91 23.07 81.99 22.83C82.0695 22.5992 82.1806 22.3804 82.32 22.18L83.09 20.93C83.1492 20.8323 83.2235 20.7446 83.31 20.67C83.5879 20.4148 83.8152 20.1095 83.98 19.77C84.0247 19.7207 84.0496 19.6566 84.05 19.59C84.2055 19.204 84.4179 18.8433 84.68 18.52C84.93 18.29 85.2 18.07 85.46 17.86C85.46 17.86 85.52 17.78 85.59 17.77C85.66 17.76 85.8 17.68 85.87 17.6C85.9658 17.4925 86.0694 17.3922 86.18 17.3C86.2562 17.2607 86.3367 17.2305 86.42 17.21C86.49 17.21 86.62 17.31 86.62 17.34C86.62 17.37 86.73 17.42 86.79 17.46H86.85C86.8329 17.7962 86.7895 18.1306 86.72 18.46L86.48 19.05C86.36 19.35 86.19 19.63 86.18 19.7C86.17 19.77 86.08 19.8 86.03 19.85C85.98 19.9 85.59 20.73 85.57 20.76C85.55 20.79 85.39 21.11 85.18 21.2C85.13 21.2 85.12 21.25 85.1 21.29C84.9212 21.5751 84.7206 21.8459 84.5 22.1C84.4 22.23 84.32 22.39 84.23 22.53L84.15 22.59L84.07 22.67C83.8302 22.9898 83.6098 23.3238 83.41 23.67C83.41 23.75 83 24.04 82.96 24.14C82.92 24.24 82.64 24.29 82.64 24.36Z" fill="#231F20"/>
</mask>
<g mask="url(#mask0_7_48)">
<rect x="-13" y="-51" width="151" height="182" fill="white"/>
</g>
</svg>
